<svg width="248" height="248" viewBox="0 0 248 248" fill="none" xmlns="http://www.w3.org/2000/svg">
<g clip-path="url(#clip0_5_1124)">
<path d="M5.80602 2.90301C5.80602 4.56187 4.56187 5.80602 2.90301 5.80602C1.24415 5.80602 0 4.35452 0 2.90301C0 1.4515 1.24415 0 2.90301 0C4.35452 0 5.80602 1.24415 5.80602 2.90301Z" fill="#262838"/>
<path d="M29.8597 2.90301C29.8597 4.56187 28.6156 5.80602 26.9567 5.80602C25.2979 5.80602 24.0537 4.56187 24.0537 2.90301C24.0537 1.24415 25.5052 0 27.1641 0C28.6156 0 29.8597 1.24415 29.8597 2.90301Z" fill="#262838"/>
<path d="M54.1205 2.90301C54.1205 4.56187 52.8763 5.80602 51.2175 5.80602C49.5586 5.80602 48.3145 4.56187 48.3145 2.90301C48.3145 1.24415 49.766 0 51.4248 0C52.8763 0 54.1205 1.24415 54.1205 2.90301Z" fill="#262838"/>
<path d="M78.3812 2.90301C78.3812 4.56187 77.1371 5.80602 75.4782 5.80602C73.8193 5.80602 72.5752 4.56187 72.5752 2.90301C72.5752 1.24415 74.0267 0 75.4782 0C77.1371 0 78.3812 1.24415 78.3812 2.90301Z" fill="#262838"/>
<path d="M102.642 2.90301C102.642 4.56187 101.398 5.80602 99.7389 5.80602C98.0801 5.80602 96.8359 4.56187 96.8359 2.90301C96.8359 1.24415 98.2874 0 99.7389 0C101.398 0 102.642 1.24415 102.642 2.90301Z" fill="#262838"/>
<path d="M126.903 2.90301C126.903 4.56187 125.659 5.80602 124 5.80602C122.341 5.80602 121.097 4.56187 121.097 2.90301C121.097 1.24415 122.549 0 124 0C125.659 0 126.903 1.24415 126.903 2.90301Z" fill="#262838"/>
<path d="M151.164 2.90301C151.164 4.56187 149.92 5.80602 148.261 5.80602C146.602 5.80602 145.358 4.56187 145.358 2.90301C145.358 1.24415 146.809 0 148.261 0C149.92 0 151.164 1.24415 151.164 2.90301Z" fill="#262838"/>
<path d="M175.425 2.90301C175.425 4.56187 174.181 5.80602 172.522 5.80602C170.863 5.80602 169.619 4.56187 169.619 2.90301C169.619 1.24415 170.863 0 172.522 0C174.181 0 175.425 1.24415 175.425 2.90301Z" fill="#262838"/>
<path d="M199.685 2.90301C199.685 4.56187 198.441 5.80602 196.782 5.80602C195.124 5.80602 193.879 4.56187 193.879 2.90301C193.879 1.24415 195.124 0 196.782 0C198.234 0 199.685 1.24415 199.685 2.90301Z" fill="#262838"/>
<path d="M223.947 2.90301C223.947 4.56187 222.703 5.80602 221.044 5.80602C219.385 5.80602 218.141 4.56187 218.141 2.90301C218.141 1.24415 219.385 0 221.044 0C222.495 0 223.947 1.24415 223.947 2.90301Z" fill="#262838"/>
<path d="M248 2.90301C248 4.56187 246.756 5.80602 245.097 5.80602C243.438 5.80602 242.194 4.56187 242.194 2.90301C242.194 1.24415 243.438 0 245.097 0C246.756 0 248 1.24415 248 2.90301Z" fill="#262838"/>
<path d="M5.80602 27.164C5.80602 28.8229 4.56187 30.067 2.90301 30.067C1.24415 30.067 0 28.8229 0 27.164C0 25.5051 1.24415 24.261 2.90301 24.261C4.35452 24.261 5.80602 25.5051 5.80602 27.164Z" fill="#262838"/>
<path d="M29.8597 27.164C29.8597 28.8229 28.6156 30.067 26.9567 30.067C25.2979 30.067 24.0537 28.8229 24.0537 27.164C24.0537 25.5051 25.2979 24.261 26.9567 24.261C28.6156 24.261 29.8597 25.5051 29.8597 27.164Z" fill="#262838"/>
<path d="M54.1205 27.164C54.1205 28.8229 52.8763 30.067 51.2175 30.067C49.5586 30.067 48.3145 28.8229 48.3145 27.164C48.3145 25.5051 49.5586 24.261 51.2175 24.261C52.8763 24.261 54.1205 25.5051 54.1205 27.164Z" fill="#262838"/>
<path d="M78.3812 27.164C78.3812 28.8229 77.1371 30.067 75.4782 30.067C73.8193 30.067 72.5752 28.8229 72.5752 27.164C72.5752 25.5051 73.8193 24.261 75.4782 24.261C77.1371 24.261 78.3812 25.5051 78.3812 27.164Z" fill="#262838"/>
<path d="M102.642 27.164C102.642 28.8229 101.398 30.067 99.7389 30.067C98.0801 30.067 96.8359 28.8229 96.8359 27.164C96.8359 25.5051 98.0801 24.261 99.7389 24.261C101.398 24.261 102.642 25.5051 102.642 27.164Z" fill="#262838"/>
<path d="M132.502 27.1638C132.502 31.933 128.769 35.6655 124 35.6655C119.231 35.6655 115.499 31.933 115.499 27.1638C115.499 22.3946 119.231 18.6621 124 18.6621C128.769 18.4548 132.502 22.3946 132.502 27.1638Z" fill="#262838"/>
<path d="M151.164 27.164C151.164 28.8229 149.92 30.067 148.261 30.067C146.602 30.067 145.358 28.8229 145.358 27.164C145.358 25.5051 146.602 24.261 148.261 24.261C149.92 24.261 151.164 25.5051 151.164 27.164Z" fill="#262838"/>
<path d="M175.425 27.164C175.425 28.8229 174.181 30.067 172.522 30.067C170.863 30.067 169.619 28.8229 169.619 27.164C169.619 25.5051 170.863 24.261 172.522 24.261C174.181 24.261 175.425 25.5051 175.425 27.164Z" fill="#262838"/>
<path d="M199.685 27.164C199.685 28.8229 198.441 30.067 196.782 30.067C195.124 30.067 193.879 28.8229 193.879 27.164C193.879 25.5051 195.124 24.261 196.782 24.261C198.234 24.261 199.685 25.5051 199.685 27.164Z" fill="#262838"/>
<path d="M223.947 27.164C223.947 28.8229 222.703 30.067 221.044 30.067C219.385 30.067 218.141 28.8229 218.141 27.164C218.141 25.5051 219.385 24.261 221.044 24.261C222.495 24.261 223.947 25.5051 223.947 27.164Z" fill="#262838"/>
<path d="M248 27.164C248 28.8229 246.756 30.067 245.097 30.067C243.438 30.067 242.194 28.8229 242.194 27.164C242.194 25.5051 243.438 24.261 245.097 24.261C246.756 24.261 248 25.5051 248 27.164Z" fill="#262838"/>
<path d="M5.80602 51.4247C5.80602 53.0836 4.56187 54.3278 2.90301 54.3278C1.24415 54.3278 0 53.0836 0 51.4247C0 49.7659 1.24415 48.5217 2.90301 48.5217C4.35452 48.5217 5.80602 49.7659 5.80602 51.4247Z" fill="#262838"/>
<path d="M29.8597 51.4247C29.8597 53.0836 28.6156 54.3278 26.9567 54.3278C25.2979 54.3278 24.0537 53.0836 24.0537 51.4247C24.0537 49.7659 25.2979 48.5217 26.9567 48.5217C28.6156 48.5217 29.8597 49.7659 29.8597 51.4247Z" fill="#262838"/>
<path d="M54.1205 51.4247C54.1205 53.0836 52.8763 54.3278 51.2175 54.3278C49.5586 54.3278 48.3145 53.0836 48.3145 51.4247C48.3145 49.7659 49.5586 48.5217 51.2175 48.5217C52.8763 48.5217 54.1205 49.7659 54.1205 51.4247Z" fill="#262838"/>
<path d="M78.3812 51.4247C78.3812 53.0836 77.1371 54.3278 75.4782 54.3278C73.8193 54.3278 72.5752 53.0836 72.5752 51.4247C72.5752 49.7659 73.8193 48.5217 75.4782 48.5217C77.1371 48.5217 78.3812 49.7659 78.3812 51.4247Z" fill="#262838"/>
<path d="M108.448 51.4248C108.448 56.194 104.716 59.9265 99.9465 59.9265C95.1773 59.9265 91.4448 56.194 91.4448 51.4248C91.4448 46.6556 95.1773 42.9231 99.9465 42.9231C104.508 42.7158 108.448 46.6556 108.448 51.4248Z" fill="#262838"/>
<path d="M138.308 51.4246C138.308 59.3042 131.88 65.7323 124 65.7323C116.12 65.7323 109.692 59.3042 109.692 51.4246C109.692 43.545 116.12 37.1169 124 37.1169C131.88 37.1169 138.308 43.545 138.308 51.4246Z" fill="#262838"/>
<path d="M156.763 51.4248C156.763 56.194 153.03 59.9265 148.261 59.9265C143.492 59.9265 139.759 56.194 139.759 51.4248C139.759 46.6556 143.492 42.9231 148.261 42.9231C153.03 42.7158 156.763 46.6556 156.763 51.4248Z" fill="#262838"/>
<path d="M175.425 51.4247C175.425 53.0836 174.181 54.3278 172.522 54.3278C170.863 54.3278 169.619 53.0836 169.619 51.4247C169.619 49.7659 170.863 48.5217 172.522 48.5217C174.181 48.5217 175.425 49.7659 175.425 51.4247Z" fill="#262838"/>
<path d="M199.685 51.4247C199.685 53.0836 198.441 54.3278 196.782 54.3278C195.124 54.3278 193.879 53.0836 193.879 51.4247C193.879 49.7659 195.124 48.5217 196.782 48.5217C198.234 48.5217 199.685 49.7659 199.685 51.4247Z" fill="#262838"/>
<path d="M223.947 51.4247C223.947 53.0836 222.703 54.3278 221.044 54.3278C219.385 54.3278 218.141 53.0836 218.141 51.4247C218.141 49.7659 219.385 48.5217 221.044 48.5217C222.495 48.5217 223.947 49.7659 223.947 51.4247Z" fill="#262838"/>
<path d="M248 51.4247C248 53.0836 246.756 54.3278 245.097 54.3278C243.438 54.3278 242.194 53.0836 242.194 51.4247C242.194 49.7659 243.438 48.5217 245.097 48.5217C246.756 48.5217 248 49.7659 248 51.4247Z" fill="#262838"/>
<path d="M5.80602 75.4782C5.80602 77.1371 4.56187 78.3812 2.90301 78.3812C1.24415 78.3812 0 77.1371 0 75.4782C0 73.8193 1.24415 72.5752 2.90301 72.5752C4.35452 72.7826 5.80602 74.0267 5.80602 75.4782Z" fill="#262838"/>
<path d="M29.8597 75.4782C29.8597 77.1371 28.6156 78.3812 26.9567 78.3812C25.2979 78.3812 24.0537 77.1371 24.0537 75.4782C24.0537 73.8193 25.2979 72.5752 26.9567 72.5752C28.6156 72.7826 29.8597 74.0267 29.8597 75.4782Z" fill="#262838"/>
<path d="M54.1205 75.4782C54.1205 77.1371 52.8763 78.3812 51.2175 78.3812C49.5586 78.3812 48.3145 77.1371 48.3145 75.4782C48.3145 73.8193 49.5586 72.5752 51.2175 72.5752C52.8763 72.7826 54.1205 74.0267 54.1205 75.4782Z" fill="#262838"/>
<path d="M84.1874 75.4782C84.1874 80.2475 80.455 83.9799 75.6858 83.9799C70.9165 83.9799 67.1841 80.2475 67.1841 75.4782C67.1841 70.709 70.9165 66.9766 75.6858 66.9766C80.2476 66.9766 84.1874 70.9164 84.1874 75.4782Z" fill="#262838"/>
<path d="M114.047 75.4783C114.047 83.3579 107.619 89.786 99.7393 89.786C91.8597 89.786 85.4316 83.3579 85.4316 75.4783C85.4316 67.5988 91.8597 61.1707 99.7393 61.1707C107.619 61.1707 114.047 67.5988 114.047 75.4783Z" fill="#262838"/>
<path d="M135.405 75.4782C135.405 81.6989 130.221 86.8829 124 86.8829C117.779 86.8829 112.595 81.6989 112.595 75.4782C112.595 69.2574 117.779 64.0735 124 64.0735C130.428 64.0735 135.405 69.2574 135.405 75.4782Z" fill="#262838"/>
<path d="M162.569 75.4783C162.569 83.3579 156.14 89.786 148.261 89.786C140.381 89.786 133.953 83.3579 133.953 75.4783C133.953 67.5988 140.381 61.1707 148.261 61.1707C156.14 61.1707 162.569 67.5988 162.569 75.4783Z" fill="#262838"/>
<path d="M181.023 75.4782C181.023 80.2475 177.291 83.9799 172.522 83.9799C167.752 83.9799 164.02 80.2475 164.02 75.4782C164.02 70.709 167.752 66.9766 172.522 66.9766C177.291 66.9766 181.023 70.9164 181.023 75.4782Z" fill="#262838"/>
<path d="M199.685 75.4782C199.685 77.1371 198.441 78.3812 196.782 78.3812C195.124 78.3812 193.879 77.1371 193.879 75.4782C193.879 73.8193 195.124 72.5752 196.782 72.5752C198.234 72.7826 199.685 74.0267 199.685 75.4782Z" fill="#262838"/>
<path d="M223.947 75.4782C223.947 77.1371 222.703 78.3812 221.044 78.3812C219.385 78.3812 218.141 77.1371 218.141 75.4782C218.141 73.8193 219.385 72.5752 221.044 72.5752C222.495 72.7826 223.947 74.0267 223.947 75.4782Z" fill="#262838"/>
<path d="M248 75.4782C248 77.1371 246.756 78.3812 245.097 78.3812C243.438 78.3812 242.194 77.1371 242.194 75.4782C242.194 73.8193 243.438 72.5752 245.097 72.5752C246.756 72.7826 248 74.0267 248 75.4782Z" fill="#262838"/>
<path d="M5.80602 99.7392C5.80602 101.398 4.56187 102.642 2.90301 102.642C1.24415 102.642 0 101.398 0 99.7392C0 98.0803 1.24415 96.8362 2.90301 96.8362C4.35452 97.0435 5.80602 98.2877 5.80602 99.7392Z" fill="#262838"/>
<path d="M29.8597 99.7392C29.8597 101.398 28.6156 102.642 26.9567 102.642C25.2979 102.642 24.0537 101.398 24.0537 99.7392C24.0537 98.0803 25.2979 96.8362 26.9567 96.8362C28.6156 97.0435 29.8597 98.2877 29.8597 99.7392Z" fill="#262838"/>
<path d="M54.1205 99.7392C54.1205 101.398 52.8763 102.642 51.2175 102.642C49.5586 102.642 48.3145 101.398 48.3145 99.7392C48.3145 98.0803 49.5586 96.8362 51.2175 96.8362C52.8763 97.0435 54.1205 98.2877 54.1205 99.7392Z" fill="#262838"/>
<path d="M89.7858 99.7391C89.7858 107.619 83.3577 114.047 75.4781 114.047C67.5985 114.047 61.1704 107.619 61.1704 99.7391C61.1704 91.8595 67.5985 85.4314 75.4781 85.4314C83.3577 85.4314 89.7858 91.8595 89.7858 99.7391Z" fill="#262838"/>
<path d="M111.144 99.7392C111.144 105.96 105.96 111.144 99.7392 111.144C93.5184 111.144 88.3345 105.96 88.3345 99.7392C88.3345 93.5184 93.5184 88.3345 99.7392 88.3345C106.167 88.3345 111.144 93.5184 111.144 99.7392Z" fill="#262838"/>
<path d="M135.405 99.7392C135.405 105.96 130.221 111.144 124 111.144C117.779 111.144 112.595 105.96 112.595 99.7392C112.595 93.5184 117.779 88.3345 124 88.3345C130.428 88.3345 135.405 93.5184 135.405 99.7392Z" fill="#262838"/>
<path d="M159.665 99.7392C159.665 105.96 154.481 111.144 148.261 111.144C142.04 111.144 136.856 105.96 136.856 99.7392C136.856 93.5184 142.04 88.3345 148.261 88.3345C154.689 88.3345 159.665 93.5184 159.665 99.7392Z" fill="#262838"/>
<path d="M186.829 99.7391C186.829 107.619 180.401 114.047 172.522 114.047C164.642 114.047 158.214 107.619 158.214 99.7391C158.214 91.8595 164.642 85.4314 172.522 85.4314C180.401 85.6388 186.829 91.8595 186.829 99.7391Z" fill="#262838"/>
<path d="M199.685 99.7392C199.685 101.398 198.441 102.642 196.782 102.642C195.124 102.642 193.879 101.398 193.879 99.7392C193.879 98.0803 195.124 96.8362 196.782 96.8362C198.234 97.0435 199.685 98.2877 199.685 99.7392Z" fill="#262838"/>
<path d="M223.947 99.7392C223.947 101.398 222.703 102.642 221.044 102.642C219.385 102.642 218.141 101.398 218.141 99.7392C218.141 98.0803 219.385 96.8362 221.044 96.8362C222.495 97.0435 223.947 98.2877 223.947 99.7392Z" fill="#262838"/>
<path d="M248 99.7392C248 101.398 246.756 102.642 245.097 102.642C243.438 102.642 242.194 101.398 242.194 99.7392C242.194 98.0803 243.438 96.8362 245.097 96.8362C246.756 97.0435 248 98.2877 248 99.7392Z" fill="#262838"/>
<path d="M5.80602 124C5.80602 125.659 4.56187 126.903 2.90301 126.903C1.24415 126.903 0 125.659 0 124C0 122.341 1.24415 121.097 2.90301 121.097C4.35452 121.097 5.80602 122.548 5.80602 124Z" fill="#262838"/>
<path d="M29.8597 124C29.8597 125.659 28.6156 126.903 26.9567 126.903C25.2979 126.903 24.0537 125.659 24.0537 124C24.0537 122.341 25.2979 121.097 26.9567 121.097C28.6156 121.097 29.8597 122.548 29.8597 124Z" fill="#262838"/>
<path d="M57.0232 124C57.0232 127.11 54.5349 129.806 51.2172 129.806C48.1068 129.806 45.4111 127.318 45.4111 124C45.4111 120.682 47.8994 118.194 51.2172 118.194C54.5349 118.401 57.0232 120.89 57.0232 124Z" fill="#262838"/>
<path d="M89.7858 124C89.7858 131.88 83.3577 138.308 75.4781 138.308C67.5985 138.308 61.1704 131.88 61.1704 124C61.1704 116.12 67.5985 109.692 75.4781 109.692C83.3577 109.692 89.7858 116.12 89.7858 124Z" fill="#262838"/>
<path d="M111.144 124C111.144 130.221 105.96 135.405 99.7392 135.405C93.5184 135.405 88.3345 130.221 88.3345 124C88.3345 117.779 93.5184 112.595 99.7392 112.595C106.167 112.595 111.144 117.779 111.144 124Z" fill="#262838"/>
<path d="M135.405 124C135.405 130.221 130.221 135.405 124 135.405C117.779 135.405 112.595 130.221 112.595 124C112.595 117.779 117.779 112.595 124 112.595C130.428 112.595 135.405 117.779 135.405 124Z" fill="#262838"/>
<path d="M159.665 124C159.665 130.221 154.481 135.405 148.261 135.405C142.04 135.405 136.856 130.221 136.856 124C136.856 117.779 142.04 112.595 148.261 112.595C154.689 112.595 159.665 117.779 159.665 124Z" fill="#262838"/>
<path d="M186.829 124C186.829 131.88 180.401 138.308 172.522 138.308C164.642 138.308 158.214 131.88 158.214 124C158.214 116.12 164.642 109.692 172.522 109.692C180.401 109.692 186.829 116.12 186.829 124Z" fill="#262838"/>
<path d="M202.381 124C202.381 127.11 199.893 129.806 196.575 129.806C193.465 129.806 190.769 127.318 190.769 124C190.769 120.682 193.257 118.194 196.575 118.194C199.893 118.401 202.381 120.89 202.381 124Z" fill="#262838"/>
<path d="M223.947 124C223.947 125.659 222.703 126.903 221.044 126.903C219.385 126.903 218.141 125.659 218.141 124C218.141 122.341 219.385 121.097 221.044 121.097C222.495 121.097 223.947 122.548 223.947 124Z" fill="#262838"/>
<path d="M248 124C248 125.659 246.756 126.903 245.097 126.903C243.438 126.903 242.194 125.659 242.194 124C242.194 122.341 243.438 121.097 245.097 121.097C246.756 121.097 248 122.548 248 124Z" fill="#262838"/>
<path d="M5.80602 148.261C5.80602 149.92 4.56187 151.164 2.90301 151.164C1.24415 151.164 0 149.92 0 148.261C0 146.602 1.24415 145.358 2.90301 145.358C4.35452 145.358 5.80602 146.809 5.80602 148.261Z" fill="#262838"/>
<path d="M29.8597 148.261C29.8597 149.92 28.6156 151.164 26.9567 151.164C25.2979 151.164 24.0537 149.92 24.0537 148.261C24.0537 146.602 25.2979 145.358 26.9567 145.358C28.6156 145.358 29.8597 146.809 29.8597 148.261Z" fill="#262838"/>
<path d="M54.1205 148.261C54.1205 149.92 52.8763 151.164 51.2175 151.164C49.5586 151.164 48.3145 149.92 48.3145 148.261C48.3145 146.602 49.5586 145.358 51.2175 145.358C52.8763 145.358 54.1205 146.809 54.1205 148.261Z" fill="#262838"/>
<path d="M89.7858 148.261C89.7858 156.14 83.3577 162.569 75.4781 162.569C67.5985 162.569 61.1704 156.14 61.1704 148.261C61.1704 140.381 67.5985 133.953 75.4781 133.953C83.3577 133.953 89.7858 140.381 89.7858 148.261Z" fill="#262838"/>
<path d="M111.144 148.261C111.144 154.482 105.96 159.666 99.7392 159.666C93.5184 159.666 88.3345 154.482 88.3345 148.261C88.3345 142.04 93.5184 136.856 99.7392 136.856C106.167 136.856 111.144 142.04 111.144 148.261Z" fill="#262838"/>
<path d="M135.405 148.261C135.405 154.482 130.221 159.666 124 159.666C117.779 159.666 112.595 154.482 112.595 148.261C112.595 142.04 117.779 136.856 124 136.856C130.428 136.856 135.405 142.04 135.405 148.261Z" fill="#262838"/>
<path d="M159.665 148.261C159.665 154.482 154.481 159.666 148.261 159.666C142.04 159.666 136.856 154.482 136.856 148.261C136.856 142.04 142.04 136.856 148.261 136.856C154.689 136.856 159.665 142.04 159.665 148.261Z" fill="#262838"/>
<path d="M186.829 148.261C186.829 156.14 180.401 162.569 172.522 162.569C164.642 162.569 158.214 156.14 158.214 148.261C158.214 140.381 164.642 133.953 172.522 133.953C180.401 133.953 186.829 140.381 186.829 148.261Z" fill="#262838"/>
<path d="M199.685 148.261C199.685 149.92 198.441 151.164 196.782 151.164C195.124 151.164 193.879 149.92 193.879 148.261C193.879 146.602 195.124 145.358 196.782 145.358C198.234 145.358 199.685 146.809 199.685 148.261Z" fill="#262838"/>
<path d="M223.947 148.261C223.947 149.92 222.703 151.164 221.044 151.164C219.385 151.164 218.141 149.92 218.141 148.261C218.141 146.602 219.385 145.358 221.044 145.358C222.495 145.358 223.947 146.809 223.947 148.261Z" fill="#262838"/>
<path d="M248 148.261C248 149.92 246.756 151.164 245.097 151.164C243.438 151.164 242.194 149.92 242.194 148.261C242.194 146.602 243.438 145.358 245.097 145.358C246.756 145.358 248 146.809 248 148.261Z" fill="#262838"/>
<path d="M5.80602 172.522C5.80602 174.181 4.56187 175.425 2.90301 175.425C1.24415 175.425 0 174.181 0 172.522C0 170.863 1.24415 169.619 2.90301 169.619C4.35452 169.619 5.80602 170.863 5.80602 172.522Z" fill="#262838"/>
<path d="M29.8597 172.522C29.8597 174.181 28.6156 175.425 26.9567 175.425C25.2979 175.425 24.0537 174.181 24.0537 172.522C24.0537 170.863 25.2979 169.619 26.9567 169.619C28.6156 169.619 29.8597 170.863 29.8597 172.522Z" fill="#262838"/>
<path d="M54.1205 172.522C54.1205 174.181 52.8763 175.425 51.2175 175.425C49.5586 175.425 48.3145 174.181 48.3145 172.522C48.3145 170.863 49.5586 169.619 51.2175 169.619C52.8763 169.619 54.1205 170.863 54.1205 172.522Z" fill="#262838"/>
<path d="M84.1874 172.522C84.1874 177.291 80.455 181.023 75.6858 181.023C70.9165 181.023 67.1841 177.291 67.1841 172.522C67.1841 167.752 70.9165 164.02 75.6858 164.02C80.2476 164.02 84.1874 167.752 84.1874 172.522Z" fill="#262838"/>
<path d="M114.047 172.522C114.047 180.401 107.619 186.829 99.7393 186.829C91.8597 186.829 85.4316 180.401 85.4316 172.522C85.4316 164.642 91.8597 158.214 99.7393 158.214C107.619 158.214 114.047 164.642 114.047 172.522Z" fill="#262838"/>
<path d="M135.405 172.522C135.405 178.742 130.221 183.926 124 183.926C117.779 183.926 112.595 178.742 112.595 172.522C112.595 166.301 117.779 161.117 124 161.117C130.428 161.117 135.405 166.301 135.405 172.522Z" fill="#262838"/>
<path d="M162.569 172.522C162.569 180.401 156.14 186.829 148.261 186.829C140.381 186.829 133.953 180.401 133.953 172.522C133.953 164.642 140.381 158.214 148.261 158.214C156.14 158.214 162.569 164.642 162.569 172.522Z" fill="#262838"/>
<path d="M181.023 172.522C181.023 177.291 177.291 181.023 172.522 181.023C167.752 181.023 164.02 177.291 164.02 172.522C164.02 167.752 167.752 164.02 172.522 164.02C177.291 164.02 181.023 167.752 181.023 172.522Z" fill="#262838"/>
<path d="M199.685 172.522C199.685 174.181 198.441 175.425 196.782 175.425C195.124 175.425 193.879 174.181 193.879 172.522C193.879 170.863 195.124 169.619 196.782 169.619C198.234 169.619 199.685 170.863 199.685 172.522Z" fill="#262838"/>
<path d="M223.947 172.522C223.947 174.181 222.703 175.425 221.044 175.425C219.385 175.425 218.141 174.181 218.141 172.522C218.141 170.863 219.385 169.619 221.044 169.619C222.495 169.619 223.947 170.863 223.947 172.522Z" fill="#262838"/>
<path d="M248 172.522C248 174.181 246.756 175.425 245.097 175.425C243.438 175.425 242.194 174.181 242.194 172.522C242.194 170.863 243.438 169.619 245.097 169.619C246.756 169.619 248 170.863 248 172.522Z" fill="#262838"/>
<path d="M5.80602 221.043C5.80602 222.702 4.56187 223.946 2.90301 223.946C1.24415 223.946 0 222.702 0 221.043C0 219.385 1.24415 218.14 2.90301 218.14C4.35452 218.14 5.80602 219.385 5.80602 221.043Z" fill="#262838"/>
<path d="M29.8597 221.043C29.8597 222.702 28.6156 223.946 26.9567 223.946C25.2979 223.946 24.0537 222.702 24.0537 221.043C24.0537 219.385 25.2979 218.14 26.9567 218.14C28.6156 218.14 29.8597 219.385 29.8597 221.043Z" fill="#262838"/>
<path d="M54.1205 221.043C54.1205 222.702 52.8763 223.946 51.2175 223.946C49.5586 223.946 48.3145 222.702 48.3145 221.043C48.3145 219.385 49.5586 218.14 51.2175 218.14C52.8763 218.14 54.1205 219.385 54.1205 221.043Z" fill="#262838"/>
<path d="M78.3812 221.043C78.3812 222.702 77.1371 223.946 75.4782 223.946C73.8193 223.946 72.5752 222.702 72.5752 221.043C72.5752 219.385 73.8193 218.14 75.4782 218.14C77.1371 218.14 78.3812 219.385 78.3812 221.043Z" fill="#262838"/>
<path d="M102.642 221.043C102.642 222.702 101.398 223.946 99.7389 223.946C98.0801 223.946 96.8359 222.702 96.8359 221.043C96.8359 219.385 98.0801 218.14 99.7389 218.14C101.398 218.14 102.642 219.385 102.642 221.043Z" fill="#262838"/>
<path d="M132.502 221.043C132.502 225.813 128.769 229.545 124 229.545C119.231 229.545 115.499 225.813 115.499 221.043C115.499 216.274 119.231 212.542 124 212.542C128.769 212.334 132.502 216.274 132.502 221.043Z" fill="#262838"/>
<path d="M151.164 221.043C151.164 222.702 149.92 223.946 148.261 223.946C146.602 223.946 145.358 222.702 145.358 221.043C145.358 219.385 146.602 218.14 148.261 218.14C149.92 218.14 151.164 219.385 151.164 221.043Z" fill="#262838"/>
<path d="M175.425 221.043C175.425 222.702 174.181 223.946 172.522 223.946C170.863 223.946 169.619 222.702 169.619 221.043C169.619 219.385 170.863 218.14 172.522 218.14C174.181 218.14 175.425 219.385 175.425 221.043Z" fill="#262838"/>
<path d="M199.685 221.043C199.685 222.702 198.441 223.946 196.782 223.946C195.124 223.946 193.879 222.702 193.879 221.043C193.879 219.385 195.124 218.14 196.782 218.14C198.234 218.14 199.685 219.385 199.685 221.043Z" fill="#262838"/>
<path d="M223.947 221.043C223.947 222.702 222.703 223.946 221.044 223.946C219.385 223.946 218.141 222.702 218.141 221.043C218.141 219.385 219.385 218.14 221.044 218.14C222.495 218.14 223.947 219.385 223.947 221.043Z" fill="#262838"/>
<path d="M248 221.043C248 222.702 246.756 223.946 245.097 223.946C243.438 223.946 242.194 222.702 242.194 221.043C242.194 219.385 243.438 218.14 245.097 218.14C246.756 218.14 248 219.385 248 221.043Z" fill="#262838"/>
<path d="M5.80602 196.783C5.80602 198.442 4.56187 199.686 2.90301 199.686C1.24415 199.686 0 198.442 0 196.783C0 195.124 1.24415 193.88 2.90301 193.88C4.35452 193.88 5.80602 195.124 5.80602 196.783Z" fill="#262838"/>
<path d="M29.8597 196.783C29.8597 198.442 28.6156 199.686 26.9567 199.686C25.2979 199.686 24.0537 198.442 24.0537 196.783C24.0537 195.124 25.2979 193.88 26.9567 193.88C28.6156 193.88 29.8597 195.124 29.8597 196.783Z" fill="#262838"/>
<path d="M54.1205 196.783C54.1205 198.442 52.8763 199.686 51.2175 199.686C49.5586 199.686 48.3145 198.442 48.3145 196.783C48.3145 195.124 49.5586 193.88 51.2175 193.88C52.8763 193.88 54.1205 195.124 54.1205 196.783Z" fill="#262838"/>
<path d="M78.3812 196.783C78.3812 198.442 77.1371 199.686 75.4782 199.686C73.8193 199.686 72.5752 198.442 72.5752 196.783C72.5752 195.124 73.8193 193.88 75.4782 193.88C77.1371 193.88 78.3812 195.124 78.3812 196.783Z" fill="#262838"/>
<path d="M108.448 196.783C108.448 201.552 104.716 205.284 99.9465 205.284C95.1773 205.284 91.4448 201.552 91.4448 196.783C91.4448 192.013 95.1773 188.281 99.9465 188.281C104.508 188.281 108.448 192.013 108.448 196.783Z" fill="#262838"/>
<path d="M138.308 196.783C138.308 204.662 131.88 211.09 124 211.09C116.12 211.09 109.692 204.662 109.692 196.783C109.692 188.903 116.12 182.475 124 182.475C131.88 182.475 138.308 188.903 138.308 196.783Z" fill="#262838"/>
<path d="M156.763 196.783C156.763 201.552 153.03 205.284 148.261 205.284C143.492 205.284 139.759 201.552 139.759 196.783C139.759 192.013 143.492 188.281 148.261 188.281C153.03 188.281 156.763 192.013 156.763 196.783Z" fill="#262838"/>
<path d="M175.425 196.783C175.425 198.442 174.181 199.686 172.522 199.686C170.863 199.686 169.619 198.442 169.619 196.783C169.619 195.124 170.863 193.88 172.522 193.88C174.181 193.88 175.425 195.124 175.425 196.783Z" fill="#262838"/>
<path d="M199.685 196.783C199.685 198.442 198.441 199.686 196.782 199.686C195.124 199.686 193.879 198.442 193.879 196.783C193.879 195.124 195.124 193.88 196.782 193.88C198.234 193.88 199.685 195.124 199.685 196.783Z" fill="#262838"/>
<path d="M223.947 196.783C223.947 198.442 222.703 199.686 221.044 199.686C219.385 199.686 218.141 198.442 218.141 196.783C218.141 195.124 219.385 193.88 221.044 193.88C222.495 193.88 223.947 195.124 223.947 196.783Z" fill="#262838"/>
<path d="M248 196.783C248 198.442 246.756 199.686 245.097 199.686C243.438 199.686 242.194 198.442 242.194 196.783C242.194 195.124 243.438 193.88 245.097 193.88C246.756 193.88 248 195.124 248 196.783Z" fill="#262838"/>
<path d="M54.1205 245.304C54.1205 246.963 52.8763 248.207 51.2175 248.207C49.5586 248.207 48.3145 246.963 48.3145 245.304C48.3145 243.646 49.5586 242.401 51.2175 242.401C52.8763 242.401 54.1205 243.646 54.1205 245.304Z" fill="#262838"/>
<path d="M78.3812 245.304C78.3812 246.963 77.1371 248.207 75.4782 248.207C73.8193 248.207 72.5752 246.963 72.5752 245.304C72.5752 243.646 73.8193 242.401 75.4782 242.401C77.1371 242.401 78.3812 243.646 78.3812 245.304Z" fill="#262838"/>
<path d="M102.642 245.304C102.642 246.963 101.398 248.207 99.7389 248.207C98.0801 248.207 96.8359 246.963 96.8359 245.304C96.8359 243.646 98.0801 242.401 99.7389 242.401C101.398 242.401 102.642 243.646 102.642 245.304Z" fill="#262838"/>
<path d="M126.903 245.304C126.903 246.963 125.659 248.207 124 248.207C122.341 248.207 121.097 246.963 121.097 245.304C121.097 243.646 122.341 242.401 124 242.401C125.659 242.401 126.903 243.646 126.903 245.304Z" fill="#262838"/>
<path d="M151.164 245.304C151.164 246.963 149.92 248.207 148.261 248.207C146.602 248.207 145.358 246.963 145.358 245.304C145.358 243.646 146.602 242.401 148.261 242.401C149.92 242.401 151.164 243.646 151.164 245.304Z" fill="#262838"/>
<path d="M175.425 245.304C175.425 246.963 174.181 248.207 172.522 248.207C170.863 248.207 169.619 246.963 169.619 245.304C169.619 243.646 170.863 242.401 172.522 242.401C174.181 242.401 175.425 243.646 175.425 245.304Z" fill="#262838"/>
<path d="M199.685 245.304C199.685 246.963 198.441 248.207 196.782 248.207C195.124 248.207 193.879 246.963 193.879 245.304C193.879 243.646 195.124 242.401 196.782 242.401C198.234 242.401 199.685 243.646 199.685 245.304Z" fill="#262838"/>
<path d="M223.947 245.304C223.947 246.963 222.703 248.207 221.044 248.207C219.385 248.207 218.141 246.963 218.141 245.304C218.141 243.646 219.385 242.401 221.044 242.401C222.495 242.401 223.947 243.646 223.947 245.304Z" fill="#262838"/>
<path d="M5.80602 245.304C5.80602 246.963 4.56187 248.207 2.90301 248.207C1.24415 248.207 0 246.963 0 245.304C0 243.646 1.24415 242.401 2.90301 242.401C4.35452 242.401 5.80602 243.646 5.80602 245.304Z" fill="#262838"/>
<path d="M29.8597 245.304C29.8597 246.963 28.6156 248.207 26.9567 248.207C25.2979 248.207 24.0537 246.963 24.0537 245.304C24.0537 243.646 25.2979 242.401 26.9567 242.401C28.6156 242.401 29.8597 243.646 29.8597 245.304Z" fill="#262838"/>
<path d="M248 245.304C248 246.963 246.756 248.207 245.097 248.207C243.438 248.207 242.194 246.963 242.194 245.304C242.194 243.646 243.438 242.401 245.097 242.401C246.756 242.401 248 243.646 248 245.304Z" fill="#262838"/>
</g>
<defs>
<clipPath id="clip0_5_1124">
<rect width="248" height="248" fill="white"/>
</clipPath>
</defs>
</svg>
