<svg width="248" height="248" viewBox="0 0 248 248" fill="none" xmlns="http://www.w3.org/2000/svg">
<g clip-path="url(#clip0_5_1247)">
<path d="M54.1205 51.4247C54.1205 53.0836 52.8763 54.3278 51.2175 54.3278C49.5586 54.3278 48.3145 53.0836 48.3145 51.4247C48.3145 49.7659 49.5586 48.5217 51.2175 48.5217C52.8763 48.5217 54.1205 49.7659 54.1205 51.4247Z" fill="#262838"/>
<path d="M78.3812 51.4247C78.3812 53.0836 77.1371 54.3278 75.4782 54.3278C73.8193 54.3278 72.5752 53.0836 72.5752 51.4247C72.5752 49.7659 73.8193 48.5217 75.4782 48.5217C77.1371 48.5217 78.3812 49.7659 78.3812 51.4247Z" fill="#262838"/>
<path d="M105.545 51.4248C105.545 54.5352 103.057 57.2308 99.7391 57.2308C96.6288 57.2308 93.9331 54.7425 93.9331 51.4248C93.9331 48.1071 96.4214 45.6188 99.7391 45.6188C103.057 45.6188 105.545 48.1071 105.545 51.4248Z" fill="#262838"/>
<path d="M132.502 51.4248C132.502 56.194 128.769 59.9265 124 59.9265C119.231 59.9265 115.499 56.194 115.499 51.4248C115.499 46.6556 119.231 42.9231 124 42.9231C128.769 42.7158 132.502 46.6556 132.502 51.4248Z" fill="#262838"/>
<path d="M154.067 51.4248C154.067 54.5352 151.579 57.2308 148.261 57.2308C145.151 57.2308 142.455 54.7425 142.455 51.4248C142.455 48.1071 145.151 45.6188 148.261 45.6188C151.371 45.6188 154.067 48.1071 154.067 51.4248Z" fill="#262838"/>
<path d="M175.425 51.4247C175.425 53.0836 174.181 54.3278 172.522 54.3278C170.863 54.3278 169.619 53.0836 169.619 51.4247C169.619 49.7659 170.863 48.5217 172.522 48.5217C174.181 48.5217 175.425 49.7659 175.425 51.4247Z" fill="#262838"/>
<path d="M199.685 51.4247C199.685 53.0836 198.441 54.3278 196.782 54.3278C195.124 54.3278 193.879 53.0836 193.879 51.4247C193.879 49.7659 195.124 48.5217 196.782 48.5217C198.234 48.5217 199.685 49.7659 199.685 51.4247Z" fill="#262838"/>
<path d="M223.947 51.4247C223.947 53.0836 222.703 54.3278 221.044 54.3278C219.385 54.3278 218.141 53.0836 218.141 51.4247C218.141 49.7659 219.385 48.5217 221.044 48.5217C222.495 48.5217 223.947 49.7659 223.947 51.4247Z" fill="#262838"/>
<path d="M54.1205 75.4782C54.1205 77.1371 52.8763 78.3812 51.2175 78.3812C49.5586 78.3812 48.3145 77.1371 48.3145 75.4782C48.3145 73.8193 49.5586 72.5752 51.2175 72.5752C52.8763 72.7826 54.1205 74.0267 54.1205 75.4782Z" fill="#262838"/>
<path d="M81.2844 75.4783C81.2844 78.5886 78.7961 81.2843 75.4784 81.2843C72.368 81.2843 69.6724 78.796 69.6724 75.4783C69.6724 72.1605 72.1607 69.6722 75.4784 69.6722C78.7961 69.8796 81.2844 72.3679 81.2844 75.4783Z" fill="#262838"/>
<path d="M108.448 75.4782C108.448 80.2475 104.716 83.9799 99.9465 83.9799C95.1773 83.9799 91.4448 80.2475 91.4448 75.4782C91.4448 70.709 95.1773 66.9766 99.9465 66.9766C104.508 66.9766 108.448 70.9164 108.448 75.4782Z" fill="#262838"/>
<path d="M135.405 75.4783C135.405 81.699 130.221 86.883 124 86.883C117.779 86.883 112.595 81.699 112.595 75.4783C112.595 69.2576 117.779 64.0736 124 64.0736C130.428 64.0736 135.405 69.2576 135.405 75.4783Z" fill="#262838"/>
<path d="M156.763 75.4782C156.763 80.2475 153.03 83.9799 148.261 83.9799C143.492 83.9799 139.759 80.2475 139.759 75.4782C139.759 70.709 143.492 66.9766 148.261 66.9766C153.03 66.9766 156.763 70.9164 156.763 75.4782Z" fill="#262838"/>
<path d="M178.328 75.4783C178.328 78.5886 175.84 81.2843 172.522 81.2843C169.411 81.2843 166.716 78.796 166.716 75.4783C166.716 72.1605 169.204 69.6722 172.522 69.6722C175.632 69.8796 178.328 72.3679 178.328 75.4783Z" fill="#262838"/>
<path d="M199.685 75.4782C199.685 77.1371 198.441 78.3812 196.782 78.3812C195.124 78.3812 193.879 77.1371 193.879 75.4782C193.879 73.8193 195.124 72.5752 196.782 72.5752C198.234 72.7826 199.685 74.0267 199.685 75.4782Z" fill="#262838"/>
<path d="M223.947 75.4782C223.947 77.1371 222.703 78.3812 221.044 78.3812C219.385 78.3812 218.141 77.1371 218.141 75.4782C218.141 73.8193 219.385 72.5752 221.044 72.5752C222.495 72.7826 223.947 74.0267 223.947 75.4782Z" fill="#262838"/>
<path d="M57.0232 99.7391C57.0232 102.849 54.5349 105.545 51.2172 105.545C48.1068 105.545 45.4111 103.057 45.4111 99.7391C45.4111 96.4214 47.8994 93.9331 51.2172 93.9331C54.5349 94.1405 57.0232 96.6288 57.0232 99.7391Z" fill="#262838"/>
<path d="M84.1874 99.7391C84.1874 104.508 80.455 108.241 75.6858 108.241C70.9165 108.241 67.1841 104.508 67.1841 99.7391C67.1841 94.9699 70.9165 91.2374 75.6858 91.2374C80.2476 91.2374 84.1874 95.1772 84.1874 99.7391Z" fill="#262838"/>
<path d="M111.144 99.7392C111.144 105.96 105.96 111.144 99.7392 111.144C93.5184 111.144 88.3345 105.96 88.3345 99.7392C88.3345 93.5184 93.5184 88.3345 99.7392 88.3345C106.167 88.3345 111.144 93.5184 111.144 99.7392Z" fill="#262838"/>
<path d="M138.308 99.7391C138.308 107.619 131.88 114.047 124 114.047C116.12 114.047 109.692 107.619 109.692 99.7391C109.692 91.8595 116.12 85.4314 124 85.4314C131.88 85.4314 138.308 91.8595 138.308 99.7391Z" fill="#262838"/>
<path d="M159.665 99.7392C159.665 105.96 154.481 111.144 148.261 111.144C142.04 111.144 136.856 105.96 136.856 99.7392C136.856 93.5184 142.04 88.3345 148.261 88.3345C154.689 88.3345 159.665 93.5184 159.665 99.7392Z" fill="#262838"/>
<path d="M181.023 99.7391C181.023 104.508 177.291 108.241 172.522 108.241C167.752 108.241 164.02 104.508 164.02 99.7391C164.02 94.9699 167.752 91.2374 172.522 91.2374C177.291 91.2374 181.023 95.1772 181.023 99.7391Z" fill="#262838"/>
<path d="M202.381 99.7391C202.381 102.849 199.893 105.545 196.575 105.545C193.465 105.545 190.769 103.057 190.769 99.7391C190.769 96.4214 193.257 93.9331 196.575 93.9331C199.893 94.1405 202.381 96.6288 202.381 99.7391Z" fill="#262838"/>
<path d="M223.947 99.7392C223.947 101.398 222.703 102.642 221.044 102.642C219.385 102.642 218.141 101.398 218.141 99.7392C218.141 98.0803 219.385 96.8362 221.044 96.8362C222.495 97.0435 223.947 98.2877 223.947 99.7392Z" fill="#262838"/>
<path d="M59.9262 124C59.9262 128.769 56.1938 132.502 51.4245 132.502C46.6553 132.502 42.9229 128.769 42.9229 124C42.9229 119.231 46.6553 115.498 51.4245 115.498C55.9864 115.498 59.9262 119.231 59.9262 124Z" fill="#262838"/>
<path d="M86.8831 124C86.8831 130.221 81.6992 135.405 75.4784 135.405C69.2577 135.405 64.0737 130.221 64.0737 124C64.0737 117.779 69.2577 112.595 75.4784 112.595C81.9065 112.595 86.8831 117.779 86.8831 124Z" fill="#262838"/>
<path d="M114.047 124C114.047 131.88 107.619 138.308 99.7393 138.308C91.8597 138.308 85.4316 131.88 85.4316 124C85.4316 116.12 91.8597 109.692 99.7393 109.692C107.619 109.692 114.047 116.12 114.047 124Z" fill="#262838"/>
<path d="M162.569 124C162.569 131.88 156.14 138.308 148.261 138.308C140.381 138.308 133.953 131.88 133.953 124C133.953 116.12 140.381 109.692 148.261 109.692C156.14 109.692 162.569 116.12 162.569 124Z" fill="#262838"/>
<path d="M183.927 124C183.927 130.221 178.743 135.405 172.522 135.405C166.301 135.405 161.117 130.221 161.117 124C161.117 117.779 166.301 112.595 172.522 112.595C178.743 112.595 183.927 117.779 183.927 124Z" fill="#262838"/>
<path d="M205.284 124C205.284 128.769 201.552 132.502 196.782 132.502C192.013 132.502 188.281 128.769 188.281 124C188.281 119.231 192.013 115.498 196.782 115.498C201.552 115.498 205.284 119.231 205.284 124Z" fill="#262838"/>
<path d="M226.642 124C226.642 127.11 224.154 129.806 220.836 129.806C217.726 129.806 215.03 127.318 215.03 124C215.03 120.682 217.519 118.194 220.836 118.194C224.154 118.401 226.642 120.89 226.642 124Z" fill="#262838"/>
<path d="M57.0232 148.261C57.0232 151.371 54.5349 154.067 51.2172 154.067C48.1068 154.067 45.4111 151.579 45.4111 148.261C45.4111 144.943 47.8994 142.455 51.2172 142.455C54.5349 142.662 57.0232 145.15 57.0232 148.261Z" fill="#262838"/>
<path d="M84.1874 148.261C84.1874 153.03 80.455 156.762 75.6858 156.762C70.9165 156.762 67.1841 153.03 67.1841 148.261C67.1841 143.492 70.9165 139.759 75.6858 139.759C80.2476 139.759 84.1874 143.492 84.1874 148.261Z" fill="#262838"/>
<path d="M111.144 148.261C111.144 154.482 105.96 159.666 99.7392 159.666C93.5184 159.666 88.3345 154.482 88.3345 148.261C88.3345 142.04 93.5184 136.856 99.7392 136.856C106.167 136.856 111.144 142.04 111.144 148.261Z" fill="#262838"/>
<path d="M138.308 148.261C138.308 156.14 131.88 162.569 124 162.569C116.12 162.569 109.692 156.14 109.692 148.261C109.692 140.381 116.12 133.953 124 133.953C131.88 133.953 138.308 140.381 138.308 148.261Z" fill="#262838"/>
<path d="M159.665 148.261C159.665 154.482 154.481 159.666 148.261 159.666C142.04 159.666 136.856 154.482 136.856 148.261C136.856 142.04 142.04 136.856 148.261 136.856C154.689 136.856 159.665 142.04 159.665 148.261Z" fill="#262838"/>
<path d="M181.023 148.261C181.023 153.03 177.291 156.762 172.522 156.762C167.752 156.762 164.02 153.03 164.02 148.261C164.02 143.492 167.752 139.759 172.522 139.759C177.291 139.759 181.023 143.492 181.023 148.261Z" fill="#262838"/>
<path d="M202.381 148.261C202.381 151.371 199.893 154.067 196.575 154.067C193.465 154.067 190.769 151.579 190.769 148.261C190.769 144.943 193.257 142.455 196.575 142.455C199.893 142.662 202.381 145.15 202.381 148.261Z" fill="#262838"/>
<path d="M223.947 148.261C223.947 149.92 222.703 151.164 221.044 151.164C219.385 151.164 218.141 149.92 218.141 148.261C218.141 146.602 219.385 145.358 221.044 145.358C222.495 145.358 223.947 146.809 223.947 148.261Z" fill="#262838"/>
<path d="M54.1205 196.783C54.1205 198.442 52.8763 199.686 51.2175 199.686C49.5586 199.686 48.3145 198.442 48.3145 196.783C48.3145 195.124 49.5586 193.88 51.2175 193.88C52.8763 193.88 54.1205 195.124 54.1205 196.783Z" fill="#262838"/>
<path d="M78.3812 196.783C78.3812 198.442 77.1371 199.686 75.4782 199.686C73.8193 199.686 72.5752 198.442 72.5752 196.783C72.5752 195.124 73.8193 193.88 75.4782 193.88C77.1371 193.88 78.3812 195.124 78.3812 196.783Z" fill="#262838"/>
<path d="M105.545 196.783C105.545 199.893 103.057 202.589 99.7391 202.589C96.6288 202.589 93.9331 200.1 93.9331 196.783C93.9331 193.465 96.4214 190.977 99.7391 190.977C103.057 190.977 105.545 193.672 105.545 196.783Z" fill="#262838"/>
<path d="M132.502 196.783C132.502 201.552 128.769 205.284 124 205.284C119.231 205.284 115.499 201.552 115.499 196.783C115.499 192.013 119.231 188.281 124 188.281C128.769 188.281 132.502 192.013 132.502 196.783Z" fill="#262838"/>
<path d="M154.067 196.783C154.067 199.893 151.579 202.589 148.261 202.589C145.151 202.589 142.455 200.1 142.455 196.783C142.455 193.465 144.943 190.977 148.261 190.977C151.371 190.977 154.067 193.672 154.067 196.783Z" fill="#262838"/>
<path d="M175.425 196.783C175.425 198.442 174.181 199.686 172.522 199.686C170.863 199.686 169.619 198.442 169.619 196.783C169.619 195.124 170.863 193.88 172.522 193.88C174.181 193.88 175.425 195.124 175.425 196.783Z" fill="#262838"/>
<path d="M199.685 196.783C199.685 198.442 198.441 199.686 196.782 199.686C195.124 199.686 193.879 198.442 193.879 196.783C193.879 195.124 195.124 193.88 196.782 193.88C198.234 193.88 199.685 195.124 199.685 196.783Z" fill="#262838"/>
<path d="M223.947 196.783C223.947 198.442 222.703 199.686 221.044 199.686C219.385 199.686 218.141 198.442 218.141 196.783C218.141 195.124 219.385 193.88 221.044 193.88C222.495 193.88 223.947 195.124 223.947 196.783Z" fill="#262838"/>
<path d="M54.1205 172.522C54.1205 174.181 52.8763 175.425 51.2175 175.425C49.5586 175.425 48.3145 174.181 48.3145 172.522C48.3145 170.863 49.5586 169.619 51.2175 169.619C52.8763 169.619 54.1205 170.863 54.1205 172.522Z" fill="#262838"/>
<path d="M81.2844 172.522C81.2844 175.632 78.7961 178.328 75.4784 178.328C72.368 178.328 69.6724 175.839 69.6724 172.522C69.6724 169.204 72.1607 166.716 75.4784 166.716C78.7961 166.716 81.2844 169.411 81.2844 172.522Z" fill="#262838"/>
<path d="M108.448 172.522C108.448 177.291 104.716 181.023 99.9465 181.023C95.1773 181.023 91.4448 177.291 91.4448 172.522C91.4448 167.752 95.1773 164.02 99.9465 164.02C104.508 164.02 108.448 167.752 108.448 172.522Z" fill="#262838"/>
<path d="M135.405 172.522C135.405 178.742 130.221 183.926 124 183.926C117.779 183.926 112.595 178.742 112.595 172.522C112.595 166.301 117.779 161.117 124 161.117C130.428 161.117 135.405 166.301 135.405 172.522Z" fill="#262838"/>
<path d="M156.763 172.522C156.763 177.291 153.03 181.023 148.261 181.023C143.492 181.023 139.759 177.291 139.759 172.522C139.759 167.752 143.492 164.02 148.261 164.02C153.03 164.02 156.763 167.752 156.763 172.522Z" fill="#262838"/>
<path d="M178.328 172.522C178.328 175.632 175.84 178.328 172.522 178.328C169.411 178.328 166.716 175.839 166.716 172.522C166.716 169.204 169.204 166.716 172.522 166.716C175.632 166.716 178.328 169.411 178.328 172.522Z" fill="#262838"/>
<path d="M199.685 172.522C199.685 174.181 198.441 175.425 196.782 175.425C195.124 175.425 193.879 174.181 193.879 172.522C193.879 170.863 195.124 169.619 196.782 169.619C198.234 169.619 199.685 170.863 199.685 172.522Z" fill="#262838"/>
<path d="M223.947 172.522C223.947 174.181 222.703 175.425 221.044 175.425C219.385 175.425 218.141 174.181 218.141 172.522C218.141 170.863 219.385 169.619 221.044 169.619C222.495 169.619 223.947 170.863 223.947 172.522Z" fill="#262838"/>
<path d="M5.80602 51.4247C5.80602 53.0836 4.56187 54.3278 2.90301 54.3278C1.24415 54.3278 0 53.0836 0 51.4247C0 49.7659 1.24415 48.5217 2.90301 48.5217C4.35452 48.5217 5.80602 49.7659 5.80602 51.4247Z" fill="#262838"/>
<path d="M29.8597 51.4247C29.8597 53.0836 28.6156 54.3278 26.9567 54.3278C25.2979 54.3278 24.0537 53.0836 24.0537 51.4247C24.0537 49.7659 25.2979 48.5217 26.9567 48.5217C28.6156 48.5217 29.8597 49.7659 29.8597 51.4247Z" fill="#262838"/>
<path d="M5.80602 75.4782C5.80602 77.1371 4.56187 78.3812 2.90301 78.3812C1.24415 78.3812 0 77.1371 0 75.4782C0 73.8193 1.24415 72.5752 2.90301 72.5752C4.35452 72.7826 5.80602 74.0267 5.80602 75.4782Z" fill="#262838"/>
<path d="M29.8597 75.4782C29.8597 77.1371 28.6156 78.3812 26.9567 78.3812C25.2979 78.3812 24.0537 77.1371 24.0537 75.4782C24.0537 73.8193 25.2979 72.5752 26.9567 72.5752C28.6156 72.7826 29.8597 74.0267 29.8597 75.4782Z" fill="#262838"/>
<path d="M5.80602 99.7392C5.80602 101.398 4.56187 102.642 2.90301 102.642C1.24415 102.642 0 101.398 0 99.7392C0 98.0803 1.24415 96.8362 2.90301 96.8362C4.35452 97.0435 5.80602 98.2877 5.80602 99.7392Z" fill="#262838"/>
<path d="M29.8597 99.7392C29.8597 101.398 28.6156 102.642 26.9567 102.642C25.2979 102.642 24.0537 101.398 24.0537 99.7392C24.0537 98.0803 25.2979 96.8362 26.9567 96.8362C28.6156 97.0435 29.8597 98.2877 29.8597 99.7392Z" fill="#262838"/>
<path d="M5.80602 124C5.80602 125.659 4.56187 126.903 2.90301 126.903C1.24415 126.903 0 125.659 0 124C0 122.341 1.24415 121.097 2.90301 121.097C4.35452 121.097 5.80602 122.549 5.80602 124Z" fill="#262838"/>
<path d="M32.7624 124C32.7624 127.11 30.2741 129.806 26.9564 129.806C23.846 129.806 21.1504 127.318 21.1504 124C21.1504 120.682 23.6387 118.194 26.9564 118.194C30.2741 118.401 32.7624 120.89 32.7624 124Z" fill="#262838"/>
<path d="M5.80602 148.261C5.80602 149.92 4.56187 151.164 2.90301 151.164C1.24415 151.164 0 149.92 0 148.261C0 146.602 1.24415 145.358 2.90301 145.358C4.35452 145.358 5.80602 146.809 5.80602 148.261Z" fill="#262838"/>
<path d="M29.8597 148.261C29.8597 149.92 28.6156 151.164 26.9567 151.164C25.2979 151.164 24.0537 149.92 24.0537 148.261C24.0537 146.602 25.2979 145.358 26.9567 145.358C28.6156 145.358 29.8597 146.809 29.8597 148.261Z" fill="#262838"/>
<path d="M5.80602 196.783C5.80602 198.442 4.56187 199.686 2.90301 199.686C1.24415 199.686 0 198.442 0 196.783C0 195.124 1.24415 193.88 2.90301 193.88C4.35452 193.88 5.80602 195.124 5.80602 196.783Z" fill="#262838"/>
<path d="M29.8597 196.783C29.8597 198.442 28.6156 199.686 26.9567 199.686C25.2979 199.686 24.0537 198.442 24.0537 196.783C24.0537 195.124 25.2979 193.88 26.9567 193.88C28.6156 193.88 29.8597 195.124 29.8597 196.783Z" fill="#262838"/>
<path d="M5.80602 172.522C5.80602 174.181 4.56187 175.425 2.90301 175.425C1.24415 175.425 0 174.181 0 172.522C0 170.863 1.24415 169.619 2.90301 169.619C4.35452 169.619 5.80602 170.863 5.80602 172.522Z" fill="#262838"/>
<path d="M29.8597 172.522C29.8597 174.181 28.6156 175.425 26.9567 175.425C25.2979 175.425 24.0537 174.181 24.0537 172.522C24.0537 170.863 25.2979 169.619 26.9567 169.619C28.6156 169.619 29.8597 170.863 29.8597 172.522Z" fill="#262838"/>
<path d="M5.80602 221.044C5.80602 222.702 4.56187 223.947 2.90301 223.947C1.24415 223.947 0 222.702 0 221.044C0 219.385 1.24415 218.141 2.90301 218.141C4.35452 218.141 5.80602 219.385 5.80602 221.044Z" fill="#262838"/>
<path d="M29.8597 221.044C29.8597 222.702 28.6156 223.947 26.9567 223.947C25.2979 223.947 24.0537 222.702 24.0537 221.044C24.0537 219.385 25.2979 218.141 26.9567 218.141C28.6156 218.141 29.8597 219.385 29.8597 221.044Z" fill="#262838"/>
<path d="M54.1205 2.90301C54.1205 4.56187 52.8763 5.80602 51.2175 5.80602C49.5586 5.80602 48.3145 4.56187 48.3145 2.90301C48.3145 1.24415 49.766 0 51.4248 0C52.8763 0 54.1205 1.24415 54.1205 2.90301Z" fill="#262838"/>
<path d="M78.3812 2.90301C78.3812 4.56187 77.1371 5.80602 75.4782 5.80602C73.8193 5.80602 72.5752 4.56187 72.5752 2.90301C72.5752 1.24415 74.0267 0 75.4782 0C77.1371 0 78.3812 1.24415 78.3812 2.90301Z" fill="#262838"/>
<path d="M102.642 2.90301C102.642 4.56187 101.398 5.80602 99.7389 5.80602C98.0801 5.80602 96.8359 4.56187 96.8359 2.90301C96.8359 1.24415 98.2874 0 99.7389 0C101.398 0 102.642 1.24415 102.642 2.90301Z" fill="#262838"/>
<path d="M126.903 2.90301C126.903 4.56187 125.659 5.80602 124 5.80602C122.341 5.80602 121.097 4.56187 121.097 2.90301C121.097 1.24415 122.549 0 124 0C125.659 0 126.903 1.24415 126.903 2.90301Z" fill="#262838"/>
<path d="M151.164 2.90301C151.164 4.56187 149.92 5.80602 148.261 5.80602C146.602 5.80602 145.358 4.56187 145.358 2.90301C145.358 1.24415 146.809 0 148.261 0C149.92 0 151.164 1.24415 151.164 2.90301Z" fill="#262838"/>
<path d="M175.425 2.90301C175.425 4.56187 174.181 5.80602 172.522 5.80602C170.863 5.80602 169.619 4.56187 169.619 2.90301C169.619 1.24415 170.863 0 172.522 0C174.181 0 175.425 1.24415 175.425 2.90301Z" fill="#262838"/>
<path d="M199.685 2.90301C199.685 4.56187 198.441 5.80602 196.782 5.80602C195.124 5.80602 193.879 4.56187 193.879 2.90301C193.879 1.24415 195.124 0 196.782 0C198.234 0 199.685 1.24415 199.685 2.90301Z" fill="#262838"/>
<path d="M223.947 2.90301C223.947 4.56187 222.703 5.80602 221.044 5.80602C219.385 5.80602 218.141 4.56187 218.141 2.90301C218.141 1.24415 219.385 0 221.044 0C222.495 0 223.947 1.24415 223.947 2.90301Z" fill="#262838"/>
<path d="M54.1205 27.1639C54.1205 28.8227 52.8763 30.0669 51.2175 30.0669C49.5586 30.0669 48.3145 28.8227 48.3145 27.1639C48.3145 25.505 49.5586 24.2609 51.2175 24.2609C52.8763 24.2609 54.1205 25.505 54.1205 27.1639Z" fill="#262838"/>
<path d="M78.3812 27.1639C78.3812 28.8227 77.1371 30.0669 75.4782 30.0669C73.8193 30.0669 72.5752 28.8227 72.5752 27.1639C72.5752 25.505 73.8193 24.2609 75.4782 24.2609C77.1371 24.2609 78.3812 25.505 78.3812 27.1639Z" fill="#262838"/>
<path d="M102.642 27.1639C102.642 28.8227 101.398 30.0669 99.7389 30.0669C98.0801 30.0669 96.8359 28.8227 96.8359 27.1639C96.8359 25.505 98.0801 24.2609 99.7389 24.2609C101.398 24.2609 102.642 25.505 102.642 27.1639Z" fill="#262838"/>
<path d="M129.806 27.1639C129.806 30.2742 127.318 32.9699 124 32.9699C120.889 32.9699 118.194 30.4816 118.194 27.1639C118.194 23.8461 120.682 21.3578 124 21.3578C127.11 21.3578 129.806 23.8461 129.806 27.1639Z" fill="#262838"/>
<path d="M151.164 27.1639C151.164 28.8227 149.92 30.0669 148.261 30.0669C146.602 30.0669 145.358 28.8227 145.358 27.1639C145.358 25.505 146.602 24.2609 148.261 24.2609C149.92 24.2609 151.164 25.505 151.164 27.1639Z" fill="#262838"/>
<path d="M175.425 27.1639C175.425 28.8227 174.181 30.0669 172.522 30.0669C170.863 30.0669 169.619 28.8227 169.619 27.1639C169.619 25.505 170.863 24.2609 172.522 24.2609C174.181 24.2609 175.425 25.505 175.425 27.1639Z" fill="#262838"/>
<path d="M199.685 27.1639C199.685 28.8227 198.441 30.0669 196.782 30.0669C195.124 30.0669 193.879 28.8227 193.879 27.1639C193.879 25.505 195.124 24.2609 196.782 24.2609C198.234 24.2609 199.685 25.505 199.685 27.1639Z" fill="#262838"/>
<path d="M223.947 27.1639C223.947 28.8227 222.703 30.0669 221.044 30.0669C219.385 30.0669 218.141 28.8227 218.141 27.1639C218.141 25.505 219.385 24.2609 221.044 24.2609C222.495 24.2609 223.947 25.505 223.947 27.1639Z" fill="#262838"/>
<path d="M5.80602 2.90301C5.80602 4.56187 4.56187 5.80602 2.90301 5.80602C1.24415 5.80602 0 4.35452 0 2.90301C0 1.4515 1.24415 0 2.90301 0C4.35452 0 5.80602 1.24415 5.80602 2.90301Z" fill="#262838"/>
<path d="M29.8597 2.90301C29.8597 4.56187 28.6156 5.80602 26.9567 5.80602C25.2979 5.80602 24.0537 4.56187 24.0537 2.90301C24.0537 1.24415 25.5052 0 27.1641 0C28.6156 0 29.8597 1.24415 29.8597 2.90301Z" fill="#262838"/>
<path d="M5.80602 27.1639C5.80602 28.8227 4.56187 30.0669 2.90301 30.0669C1.24415 30.0669 0 28.8227 0 27.1639C0 25.505 1.24415 24.2609 2.90301 24.2609C4.35452 24.2609 5.80602 25.505 5.80602 27.1639Z" fill="#262838"/>
<path d="M29.8597 27.1639C29.8597 28.8227 28.6156 30.0669 26.9567 30.0669C25.2979 30.0669 24.0537 28.8227 24.0537 27.1639C24.0537 25.505 25.2979 24.2609 26.9567 24.2609C28.6156 24.2609 29.8597 25.505 29.8597 27.1639Z" fill="#262838"/>
<path d="M248 2.90301C248 4.56187 246.756 5.80602 245.097 5.80602C243.438 5.80602 242.194 4.56187 242.194 2.90301C242.194 1.24415 243.438 0 245.097 0C246.756 0 248 1.24415 248 2.90301Z" fill="#262838"/>
<path d="M248 27.1639C248 28.8227 246.756 30.0669 245.097 30.0669C243.438 30.0669 242.194 28.8227 242.194 27.1639C242.194 25.505 243.438 24.2609 245.097 24.2609C246.756 24.2609 248 25.505 248 27.1639Z" fill="#262838"/>
<path d="M54.1205 245.304C54.1205 246.963 52.8763 248.207 51.2175 248.207C49.5586 248.207 48.3145 246.963 48.3145 245.304C48.3145 243.646 49.5586 242.401 51.2175 242.401C52.8763 242.401 54.1205 243.646 54.1205 245.304Z" fill="#262838"/>
<path d="M78.3812 245.304C78.3812 246.963 77.1371 248.207 75.4782 248.207C73.8193 248.207 72.5752 246.963 72.5752 245.304C72.5752 243.646 73.8193 242.401 75.4782 242.401C77.1371 242.401 78.3812 243.646 78.3812 245.304Z" fill="#262838"/>
<path d="M102.642 245.304C102.642 246.963 101.398 248.207 99.7389 248.207C98.0801 248.207 96.8359 246.963 96.8359 245.304C96.8359 243.646 98.0801 242.401 99.7389 242.401C101.398 242.401 102.642 243.646 102.642 245.304Z" fill="#262838"/>
<path d="M126.903 245.304C126.903 246.963 125.659 248.207 124 248.207C122.341 248.207 121.097 246.963 121.097 245.304C121.097 243.646 122.341 242.401 124 242.401C125.659 242.401 126.903 243.646 126.903 245.304Z" fill="#262838"/>
<path d="M151.164 245.304C151.164 246.963 149.92 248.207 148.261 248.207C146.602 248.207 145.358 246.963 145.358 245.304C145.358 243.646 146.602 242.401 148.261 242.401C149.92 242.401 151.164 243.646 151.164 245.304Z" fill="#262838"/>
<path d="M175.425 245.304C175.425 246.963 174.181 248.207 172.522 248.207C170.863 248.207 169.619 246.963 169.619 245.304C169.619 243.646 170.863 242.401 172.522 242.401C174.181 242.401 175.425 243.646 175.425 245.304Z" fill="#262838"/>
<path d="M199.685 245.304C199.685 246.963 198.441 248.207 196.782 248.207C195.124 248.207 193.879 246.963 193.879 245.304C193.879 243.646 195.124 242.401 196.782 242.401C198.234 242.401 199.685 243.646 199.685 245.304Z" fill="#262838"/>
<path d="M223.947 245.304C223.947 246.963 222.703 248.207 221.044 248.207C219.385 248.207 218.141 246.963 218.141 245.304C218.141 243.646 219.385 242.401 221.044 242.401C222.495 242.401 223.947 243.646 223.947 245.304Z" fill="#262838"/>
<path d="M5.80602 245.304C5.80602 246.963 4.56187 248.207 2.90301 248.207C1.24415 248.207 0 246.963 0 245.304C0 243.646 1.24415 242.401 2.90301 242.401C4.35452 242.401 5.80602 243.646 5.80602 245.304Z" fill="#262838"/>
<path d="M29.8597 245.304C29.8597 246.963 28.6156 248.207 26.9567 248.207C25.2979 248.207 24.0537 246.963 24.0537 245.304C24.0537 243.646 25.2979 242.401 26.9567 242.401C28.6156 242.401 29.8597 243.646 29.8597 245.304Z" fill="#262838"/>
<path d="M248 245.304C248 246.963 246.756 248.207 245.097 248.207C243.438 248.207 242.194 246.963 242.194 245.304C242.194 243.646 243.438 242.401 245.097 242.401C246.756 242.401 248 243.646 248 245.304Z" fill="#262838"/>
<path d="M248 51.4247C248 53.0836 246.756 54.3278 245.097 54.3278C243.438 54.3278 242.194 53.0836 242.194 51.4247C242.194 49.7659 243.438 48.5217 245.097 48.5217C246.756 48.5217 248 49.7659 248 51.4247Z" fill="#262838"/>
<path d="M248 75.4782C248 77.1371 246.756 78.3812 245.097 78.3812C243.438 78.3812 242.194 77.1371 242.194 75.4782C242.194 73.8193 243.438 72.5752 245.097 72.5752C246.756 72.7826 248 74.0267 248 75.4782Z" fill="#262838"/>
<path d="M248 99.7392C248 101.398 246.756 102.642 245.097 102.642C243.438 102.642 242.194 101.398 242.194 99.7392C242.194 98.0803 243.438 96.8362 245.097 96.8362C246.756 97.0435 248 98.2877 248 99.7392Z" fill="#262838"/>
<path d="M248 124C248 125.659 246.756 126.903 245.097 126.903C243.438 126.903 242.194 125.659 242.194 124C242.194 122.341 243.438 121.097 245.097 121.097C246.756 121.097 248 122.549 248 124Z" fill="#262838"/>
<path d="M248 148.261C248 149.92 246.756 151.164 245.097 151.164C243.438 151.164 242.194 149.92 242.194 148.261C242.194 146.602 243.438 145.358 245.097 145.358C246.756 145.358 248 146.809 248 148.261Z" fill="#262838"/>
<path d="M248 196.783C248 198.442 246.756 199.686 245.097 199.686C243.438 199.686 242.194 198.442 242.194 196.783C242.194 195.124 243.438 193.88 245.097 193.88C246.756 193.88 248 195.124 248 196.783Z" fill="#262838"/>
<path d="M248 172.522C248 174.181 246.756 175.425 245.097 175.425C243.438 175.425 242.194 174.181 242.194 172.522C242.194 170.863 243.438 169.619 245.097 169.619C246.756 169.619 248 170.863 248 172.522Z" fill="#262838"/>
<path d="M248 221.044C248 222.702 246.756 223.947 245.097 223.947C243.438 223.947 242.194 222.702 242.194 221.044C242.194 219.385 243.438 218.141 245.097 218.141C246.756 218.141 248 219.385 248 221.044Z" fill="#262838"/>
<path d="M54.1205 221.044C54.1205 222.702 52.8763 223.947 51.2175 223.947C49.5586 223.947 48.3145 222.702 48.3145 221.044C48.3145 219.385 49.5586 218.141 51.2175 218.141C52.8763 218.141 54.1205 219.385 54.1205 221.044Z" fill="#262838"/>
<path d="M78.3812 221.044C78.3812 222.702 77.1371 223.947 75.4782 223.947C73.8193 223.947 72.5752 222.702 72.5752 221.044C72.5752 219.385 73.8193 218.141 75.4782 218.141C77.1371 218.141 78.3812 219.385 78.3812 221.044Z" fill="#262838"/>
<path d="M102.642 221.044C102.642 222.702 101.398 223.947 99.7389 223.947C98.0801 223.947 96.8359 222.702 96.8359 221.044C96.8359 219.385 98.0801 218.141 99.7389 218.141C101.398 218.141 102.642 219.385 102.642 221.044Z" fill="#262838"/>
<path d="M129.806 221.043C129.806 224.154 127.318 226.849 124 226.849C120.889 226.849 118.194 224.361 118.194 221.043C118.194 217.933 120.682 215.237 124 215.237C127.11 215.237 129.806 217.933 129.806 221.043Z" fill="#262838"/>
<path d="M151.164 221.044C151.164 222.702 149.92 223.947 148.261 223.947C146.602 223.947 145.358 222.702 145.358 221.044C145.358 219.385 146.602 218.141 148.261 218.141C149.92 218.141 151.164 219.385 151.164 221.044Z" fill="#262838"/>
<path d="M175.425 221.044C175.425 222.702 174.181 223.947 172.522 223.947C170.863 223.947 169.619 222.702 169.619 221.044C169.619 219.385 170.863 218.141 172.522 218.141C174.181 218.141 175.425 219.385 175.425 221.044Z" fill="#262838"/>
<path d="M199.685 221.044C199.685 222.702 198.441 223.947 196.782 223.947C195.124 223.947 193.879 222.702 193.879 221.044C193.879 219.385 195.124 218.141 196.782 218.141C198.234 218.141 199.685 219.385 199.685 221.044Z" fill="#262838"/>
<path d="M223.947 221.044C223.947 222.702 222.703 223.947 221.044 223.947C219.385 223.947 218.141 222.702 218.141 221.044C218.141 219.385 219.385 218.141 221.044 218.141C222.495 218.141 223.947 219.385 223.947 221.044Z" fill="#262838"/>
<path d="M138.308 124C138.308 131.88 131.88 138.308 124 138.308C116.12 138.308 109.692 131.88 109.692 124C109.692 116.12 116.12 109.692 124 109.692C131.88 109.692 138.308 116.12 138.308 124Z" fill="#262838"/>
</g>
<defs>
<clipPath id="clip0_5_1247">
<rect width="248" height="248" fill="white"/>
</clipPath>
</defs>
</svg>
