<svg width="248" height="248" viewBox="0 0 248 248" fill="none" xmlns="http://www.w3.org/2000/svg">
<g clip-path="url(#clip0_5_878)">
<path d="M5.80602 2.90301C5.80602 4.56187 4.56187 5.80602 2.90301 5.80602C1.24415 5.80602 0 4.35452 0 2.90301C0 1.4515 1.24415 0 2.90301 0C4.35452 0 5.80602 1.24415 5.80602 2.90301Z" fill="#262838"/>
<path d="M29.8597 2.90301C29.8597 4.56187 28.6156 5.80602 26.9567 5.80602C25.2979 5.80602 24.0537 4.56187 24.0537 2.90301C24.0537 1.24415 25.5052 0 27.1641 0C28.6156 0 29.8597 1.24415 29.8597 2.90301Z" fill="#262838"/>
<path d="M54.1205 2.90301C54.1205 4.56187 52.8763 5.80602 51.2175 5.80602C49.5586 5.80602 48.3145 4.56187 48.3145 2.90301C48.3145 1.24415 49.766 0 51.4248 0C52.8763 0 54.1205 1.24415 54.1205 2.90301Z" fill="#262838"/>
<path d="M78.3812 2.90301C78.3812 4.56187 77.1371 5.80602 75.4782 5.80602C73.8193 5.80602 72.5752 4.56187 72.5752 2.90301C72.5752 1.24415 74.0267 0 75.4782 0C77.1371 0 78.3812 1.24415 78.3812 2.90301Z" fill="#262838"/>
<path d="M102.642 2.90301C102.642 4.56187 101.398 5.80602 99.7389 5.80602C98.0801 5.80602 96.8359 4.56187 96.8359 2.90301C96.8359 1.24415 98.2874 0 99.7389 0C101.398 0 102.642 1.24415 102.642 2.90301Z" fill="#262838"/>
<path d="M126.903 2.90301C126.903 4.56187 125.659 5.80602 124 5.80602C122.341 5.80602 121.097 4.56187 121.097 2.90301C121.097 1.24415 122.549 0 124 0C125.659 0 126.903 1.24415 126.903 2.90301Z" fill="#262838"/>
<path d="M151.164 2.90301C151.164 4.56187 149.92 5.80602 148.261 5.80602C146.602 5.80602 145.358 4.56187 145.358 2.90301C145.358 1.24415 146.809 0 148.261 0C149.92 0 151.164 1.24415 151.164 2.90301Z" fill="#262838"/>
<path d="M175.425 2.90301C175.425 4.56187 174.181 5.80602 172.522 5.80602C170.863 5.80602 169.619 4.56187 169.619 2.90301C169.619 1.24415 170.863 0 172.522 0C174.181 0 175.425 1.24415 175.425 2.90301Z" fill="#262838"/>
<path d="M199.685 2.90301C199.685 4.56187 198.441 5.80602 196.782 5.80602C195.124 5.80602 193.879 4.56187 193.879 2.90301C193.879 1.24415 195.124 0 196.782 0C198.234 0 199.685 1.24415 199.685 2.90301Z" fill="#262838"/>
<path d="M223.947 2.90301C223.947 4.56187 222.703 5.80602 221.044 5.80602C219.385 5.80602 218.141 4.56187 218.141 2.90301C218.141 1.24415 219.385 0 221.044 0C222.495 0 223.947 1.24415 223.947 2.90301Z" fill="#262838"/>
<path d="M5.80602 27.1639C5.80602 28.8227 4.56187 30.0669 2.90301 30.0669C1.24415 30.0669 0 28.8227 0 27.1639C0 25.505 1.24415 24.2609 2.90301 24.2609C4.35452 24.2609 5.80602 25.505 5.80602 27.1639Z" fill="#262838"/>
<path d="M32.7624 27.1639C32.7624 30.2743 30.2741 32.9699 26.9564 32.9699C23.846 32.9699 21.1504 30.4817 21.1504 27.1639C21.1504 23.8462 23.6387 21.3579 26.9564 21.3579C30.2741 21.3579 32.7624 23.8462 32.7624 27.1639Z" fill="#262838"/>
<path d="M57.0232 27.1639C57.0232 30.2743 54.5349 32.9699 51.2172 32.9699C48.1068 32.9699 45.4111 30.4817 45.4111 27.1639C45.4111 23.8462 47.8994 21.3579 51.2172 21.3579C54.5349 21.3579 57.0232 23.8462 57.0232 27.1639Z" fill="#262838"/>
<path d="M81.2844 27.1639C81.2844 30.2743 78.7961 32.9699 75.4784 32.9699C72.368 32.9699 69.6724 30.4817 69.6724 27.1639C69.6724 23.8462 72.1607 21.3579 75.4784 21.3579C78.7961 21.3579 81.2844 23.8462 81.2844 27.1639Z" fill="#262838"/>
<path d="M105.545 27.1639C105.545 30.2743 103.057 32.9699 99.7391 32.9699C96.6288 32.9699 93.9331 30.4817 93.9331 27.1639C93.9331 23.8462 96.4214 21.3579 99.7391 21.3579C103.057 21.3579 105.545 23.8462 105.545 27.1639Z" fill="#262838"/>
<path d="M129.806 27.1639C129.806 30.2743 127.318 32.9699 124 32.9699C120.889 32.9699 118.194 30.4817 118.194 27.1639C118.194 23.8462 120.682 21.3579 124 21.3579C127.11 21.3579 129.806 23.8462 129.806 27.1639Z" fill="#262838"/>
<path d="M154.067 27.1639C154.067 30.2743 151.579 32.9699 148.261 32.9699C145.151 32.9699 142.455 30.4817 142.455 27.1639C142.455 23.8462 144.943 21.3579 148.261 21.3579C151.371 21.3579 154.067 23.8462 154.067 27.1639Z" fill="#262838"/>
<path d="M178.328 27.1639C178.328 30.2743 175.84 32.9699 172.522 32.9699C169.411 32.9699 166.716 30.4817 166.716 27.1639C166.716 23.8462 169.204 21.3579 172.522 21.3579C175.632 21.3579 178.328 23.8462 178.328 27.1639Z" fill="#262838"/>
<path d="M202.381 27.1639C202.381 30.2743 199.893 32.9699 196.575 32.9699C193.465 32.9699 190.769 30.4817 190.769 27.1639C190.769 23.8462 193.257 21.3579 196.575 21.3579C199.893 21.3579 202.381 23.8462 202.381 27.1639Z" fill="#262838"/>
<path d="M5.80602 51.4247C5.80602 53.0836 4.56187 54.3278 2.90301 54.3278C1.24415 54.3278 0 53.0836 0 51.4247C0 49.7659 1.24415 48.5217 2.90301 48.5217C4.35452 48.5217 5.80602 49.7659 5.80602 51.4247Z" fill="#262838"/>
<path d="M32.7624 51.4248C32.7624 54.5352 30.2741 57.2308 26.9564 57.2308C23.846 57.2308 21.1504 54.7425 21.1504 51.4248C21.1504 48.1071 23.6387 45.6188 26.9564 45.6188C30.2741 45.6188 32.7624 48.1071 32.7624 51.4248Z" fill="#262838"/>
<path d="M59.9262 51.4248C59.9262 56.194 56.1938 59.9265 51.4245 59.9265C46.6553 59.9265 42.9229 56.194 42.9229 51.4248C42.9229 46.6556 46.6553 42.9231 51.4245 42.9231C55.9864 42.7158 59.9262 46.6556 59.9262 51.4248Z" fill="#262838"/>
<path d="M84.1874 51.4248C84.1874 56.194 80.455 59.9265 75.6858 59.9265C70.9165 59.9265 67.1841 56.194 67.1841 51.4248C67.1841 46.6556 70.9165 42.9231 75.6858 42.9231C80.2476 42.7158 84.1874 46.6556 84.1874 51.4248Z" fill="#262838"/>
<path d="M108.448 51.4248C108.448 56.194 104.716 59.9265 99.9465 59.9265C95.1773 59.9265 91.4448 56.194 91.4448 51.4248C91.4448 46.6556 95.1773 42.9231 99.9465 42.9231C104.508 42.7158 108.448 46.6556 108.448 51.4248Z" fill="#262838"/>
<path d="M132.502 51.4248C132.502 56.194 128.769 59.9265 124 59.9265C119.231 59.9265 115.499 56.194 115.499 51.4248C115.499 46.6556 119.231 42.9231 124 42.9231C128.769 42.7158 132.502 46.6556 132.502 51.4248Z" fill="#262838"/>
<path d="M156.763 51.4248C156.763 56.194 153.03 59.9265 148.261 59.9265C143.492 59.9265 139.759 56.194 139.759 51.4248C139.759 46.6556 143.492 42.9231 148.261 42.9231C153.03 42.7158 156.763 46.6556 156.763 51.4248Z" fill="#262838"/>
<path d="M181.023 51.4248C181.023 56.194 177.291 59.9265 172.522 59.9265C167.752 59.9265 164.02 56.194 164.02 51.4248C164.02 46.6556 167.752 42.9231 172.522 42.9231C177.291 42.7158 181.023 46.6556 181.023 51.4248Z" fill="#262838"/>
<path d="M205.284 51.4248C205.284 56.194 201.552 59.9265 196.782 59.9265C192.013 59.9265 188.281 56.194 188.281 51.4248C188.281 46.6556 192.013 42.9231 196.782 42.9231C201.552 42.7158 205.284 46.6556 205.284 51.4248Z" fill="#262838"/>
<path d="M59.9262 196.783C59.9262 201.552 56.1938 205.284 51.4245 205.284C46.6553 205.284 42.9229 201.552 42.9229 196.783C42.9229 192.013 46.6553 188.281 51.4245 188.281C55.9864 188.281 59.9262 192.013 59.9262 196.783Z" fill="#262838"/>
<path d="M84.1874 196.783C84.1874 201.552 80.455 205.284 75.6858 205.284C70.9165 205.284 67.1841 201.552 67.1841 196.783C67.1841 192.013 70.9165 188.281 75.6858 188.281C80.2476 188.281 84.1874 192.013 84.1874 196.783Z" fill="#262838"/>
<path d="M108.448 196.783C108.448 201.552 104.716 205.284 99.9465 205.284C95.1773 205.284 91.4448 201.552 91.4448 196.783C91.4448 192.013 95.1773 188.281 99.9465 188.281C104.508 188.281 108.448 192.013 108.448 196.783Z" fill="#262838"/>
<path d="M132.502 196.783C132.502 201.552 128.769 205.284 124 205.284C119.231 205.284 115.499 201.552 115.499 196.783C115.499 192.013 119.231 188.281 124 188.281C128.769 188.281 132.502 192.013 132.502 196.783Z" fill="#262838"/>
<path d="M156.763 196.783C156.763 201.552 153.03 205.284 148.261 205.284C143.492 205.284 139.759 201.552 139.759 196.783C139.759 192.013 143.492 188.281 148.261 188.281C153.03 188.281 156.763 192.013 156.763 196.783Z" fill="#262838"/>
<path d="M181.023 196.783C181.023 201.552 177.291 205.284 172.522 205.284C167.752 205.284 164.02 201.552 164.02 196.783C164.02 192.013 167.752 188.281 172.522 188.281C177.291 188.281 181.023 192.013 181.023 196.783Z" fill="#262838"/>
<path d="M205.284 196.783C205.284 201.552 201.552 205.284 196.782 205.284C192.013 205.284 188.281 201.552 188.281 196.783C188.281 192.013 192.013 188.281 196.782 188.281C201.552 188.281 205.284 192.013 205.284 196.783Z" fill="#262838"/>
<path d="M5.80602 75.4782C5.80602 77.1371 4.56187 78.3812 2.90301 78.3812C1.24415 78.3812 0 77.1371 0 75.4782C0 73.8193 1.24415 72.5752 2.90301 72.5752C4.35452 72.7826 5.80602 74.0267 5.80602 75.4782Z" fill="#262838"/>
<path d="M32.7624 75.4783C32.7624 78.5886 30.2741 81.2843 26.9564 81.2843C23.846 81.2843 21.1504 78.796 21.1504 75.4783C21.1504 72.1605 23.6387 69.6722 26.9564 69.6722C30.2741 69.8796 32.7624 72.3679 32.7624 75.4783Z" fill="#262838"/>
<path d="M59.9262 75.4782C59.9262 80.2475 56.1938 83.9799 51.4245 83.9799C46.6553 83.9799 42.9229 80.2475 42.9229 75.4782C42.9229 70.709 46.6553 66.9766 51.4245 66.9766C55.9864 66.9766 59.9262 70.9164 59.9262 75.4782Z" fill="#262838"/>
<path d="M86.8831 75.4783C86.8831 81.699 81.6992 86.883 75.4784 86.883C69.2577 86.883 64.0737 81.699 64.0737 75.4783C64.0737 69.2576 69.2577 64.0736 75.4784 64.0736C81.9065 64.0736 86.8831 69.2576 86.8831 75.4783Z" fill="#262838"/>
<path d="M111.144 75.4783C111.144 81.699 105.96 86.883 99.7392 86.883C93.5184 86.883 88.3345 81.699 88.3345 75.4783C88.3345 69.2576 93.5184 64.0736 99.7392 64.0736C106.167 64.0736 111.144 69.2576 111.144 75.4783Z" fill="#262838"/>
<path d="M159.665 75.4783C159.665 81.699 154.481 86.883 148.261 86.883C142.04 86.883 136.856 81.699 136.856 75.4783C136.856 69.2576 142.04 64.0736 148.261 64.0736C154.689 64.0736 159.665 69.2576 159.665 75.4783Z" fill="#262838"/>
<path d="M183.927 75.4783C183.927 81.699 178.743 86.883 172.522 86.883C166.301 86.883 161.117 81.699 161.117 75.4783C161.117 69.2576 166.301 64.0736 172.522 64.0736C178.743 64.0736 183.927 69.2576 183.927 75.4783Z" fill="#262838"/>
<path d="M183.927 99.7392C183.927 105.96 178.743 111.144 172.522 111.144C166.301 111.144 161.117 105.96 161.117 99.7392C161.117 93.5184 166.301 88.3345 172.522 88.3345C178.743 88.3345 183.927 93.5184 183.927 99.7392Z" fill="#262838"/>
<path d="M183.927 124C183.927 130.221 178.743 135.405 172.522 135.405C166.301 135.405 161.117 130.221 161.117 124C161.117 117.779 166.301 112.595 172.522 112.595C178.743 112.595 183.927 117.779 183.927 124Z" fill="#262838"/>
<path d="M183.927 148.261C183.927 154.482 178.743 159.666 172.522 159.666C166.301 159.666 161.117 154.482 161.117 148.261C161.117 142.04 166.301 136.856 172.522 136.856C178.743 136.856 183.927 142.04 183.927 148.261Z" fill="#262838"/>
<path d="M135.405 75.4783C135.405 81.699 130.221 86.883 124 86.883C117.779 86.883 112.595 81.699 112.595 75.4783C112.595 69.2576 117.779 64.0736 124 64.0736C130.428 64.0736 135.405 69.2576 135.405 75.4783Z" fill="#262838"/>
<path d="M86.8831 172.522C86.8831 178.742 81.6992 183.926 75.4784 183.926C69.2577 183.926 64.0737 178.742 64.0737 172.522C64.0737 166.301 69.2577 161.117 75.4784 161.117C81.9065 161.117 86.8831 166.301 86.8831 172.522Z" fill="#262838"/>
<path d="M111.144 172.522C111.144 178.742 105.96 183.926 99.7392 183.926C93.5184 183.926 88.3345 178.742 88.3345 172.522C88.3345 166.301 93.5184 161.117 99.7392 161.117C106.167 161.117 111.144 166.301 111.144 172.522Z" fill="#262838"/>
<path d="M159.665 172.522C159.665 178.742 154.481 183.926 148.261 183.926C142.04 183.926 136.856 178.742 136.856 172.522C136.856 166.301 142.04 161.117 148.261 161.117C154.689 161.117 159.665 166.301 159.665 172.522Z" fill="#262838"/>
<path d="M183.927 172.522C183.927 178.742 178.743 183.926 172.522 183.926C166.301 183.926 161.117 178.742 161.117 172.522C161.117 166.301 166.301 161.117 172.522 161.117C178.743 161.117 183.927 166.301 183.927 172.522Z" fill="#262838"/>
<path d="M135.405 172.522C135.405 178.742 130.221 183.926 124 183.926C117.779 183.926 112.595 178.742 112.595 172.522C112.595 166.301 117.779 161.117 124 161.117C130.428 161.117 135.405 166.301 135.405 172.522Z" fill="#262838"/>
<path d="M5.80602 99.7392C5.80602 101.398 4.56187 102.642 2.90301 102.642C1.24415 102.642 0 101.398 0 99.7392C0 98.0803 1.24415 96.8362 2.90301 96.8362C4.35452 97.0435 5.80602 98.2877 5.80602 99.7392Z" fill="#262838"/>
<path d="M32.7624 99.7391C32.7624 102.849 30.2741 105.545 26.9564 105.545C23.846 105.545 21.1504 103.057 21.1504 99.7391C21.1504 96.4214 23.6387 93.9331 26.9564 93.9331C30.2741 94.1405 32.7624 96.6288 32.7624 99.7391Z" fill="#262838"/>
<path d="M59.9262 99.7391C59.9262 104.508 56.1938 108.241 51.4245 108.241C46.6553 108.241 42.9229 104.508 42.9229 99.7391C42.9229 94.9699 46.6553 91.2374 51.4245 91.2374C55.9864 91.2374 59.9262 95.1772 59.9262 99.7391Z" fill="#262838"/>
<path d="M86.8831 99.7392C86.8831 105.96 81.6992 111.144 75.4784 111.144C69.2577 111.144 64.0737 105.96 64.0737 99.7392C64.0737 93.5184 69.2577 88.3345 75.4784 88.3345C81.9065 88.3345 86.8831 93.5184 86.8831 99.7392Z" fill="#262838"/>
<path d="M114.047 99.7391C114.047 107.619 107.619 114.047 99.7393 114.047C91.8597 114.047 85.4316 107.619 85.4316 99.7391C85.4316 91.8595 91.8597 85.4314 99.7393 85.4314C107.619 85.4314 114.047 91.8595 114.047 99.7391Z" fill="#262838"/>
<path d="M138.308 99.7391C138.308 107.619 131.88 114.047 124 114.047C116.12 114.047 109.692 107.619 109.692 99.7391C109.692 91.8595 116.12 85.4314 124 85.4314C131.88 85.4314 138.308 91.8595 138.308 99.7391Z" fill="#262838"/>
<path d="M162.569 99.7391C162.569 107.619 156.14 114.047 148.261 114.047C140.381 114.047 133.953 107.619 133.953 99.7391C133.953 91.8595 140.381 85.4314 148.261 85.4314C156.14 85.4314 162.569 91.8595 162.569 99.7391Z" fill="#262838"/>
<path d="M5.80602 124C5.80602 125.659 4.56187 126.903 2.90301 126.903C1.24415 126.903 0 125.659 0 124C0 122.341 1.24415 121.097 2.90301 121.097C4.35452 121.097 5.80602 122.549 5.80602 124Z" fill="#262838"/>
<path d="M32.7624 124C32.7624 127.11 30.2741 129.806 26.9564 129.806C23.846 129.806 21.1504 127.318 21.1504 124C21.1504 120.682 23.6387 118.194 26.9564 118.194C30.2741 118.401 32.7624 120.89 32.7624 124Z" fill="#262838"/>
<path d="M59.9262 124C59.9262 128.769 56.1938 132.502 51.4245 132.502C46.6553 132.502 42.9229 128.769 42.9229 124C42.9229 119.231 46.6553 115.498 51.4245 115.498C55.9864 115.498 59.9262 119.231 59.9262 124Z" fill="#262838"/>
<path d="M86.8831 124C86.8831 130.221 81.6992 135.405 75.4784 135.405C69.2577 135.405 64.0737 130.221 64.0737 124C64.0737 117.779 69.2577 112.595 75.4784 112.595C81.9065 112.595 86.8831 117.779 86.8831 124Z" fill="#262838"/>
<path d="M114.047 124C114.047 131.88 107.619 138.308 99.7393 138.308C91.8597 138.308 85.4316 131.88 85.4316 124C85.4316 116.12 91.8597 109.692 99.7393 109.692C107.619 109.692 114.047 116.12 114.047 124Z" fill="#262838"/>
<path d="M138.308 124C138.308 131.88 131.88 138.308 124 138.308C116.12 138.308 109.692 131.88 109.692 124C109.692 116.12 116.12 109.692 124 109.692C131.88 109.692 138.308 116.12 138.308 124Z" fill="#262838"/>
<path d="M162.569 124C162.569 131.88 156.14 138.308 148.261 138.308C140.381 138.308 133.953 131.88 133.953 124C133.953 116.12 140.381 109.692 148.261 109.692C156.14 109.692 162.569 116.12 162.569 124Z" fill="#262838"/>
<path d="M5.80602 148.261C5.80602 149.92 4.56187 151.164 2.90301 151.164C1.24415 151.164 0 149.92 0 148.261C0 146.602 1.24415 145.358 2.90301 145.358C4.35452 145.358 5.80602 146.809 5.80602 148.261Z" fill="#262838"/>
<path d="M32.7624 148.261C32.7624 151.371 30.2741 154.067 26.9564 154.067C23.846 154.067 21.1504 151.579 21.1504 148.261C21.1504 144.943 23.6387 142.455 26.9564 142.455C30.2741 142.662 32.7624 145.15 32.7624 148.261Z" fill="#262838"/>
<path d="M59.9262 148.261C59.9262 153.03 56.1938 156.762 51.4245 156.762C46.6553 156.762 42.9229 153.03 42.9229 148.261C42.9229 143.492 46.6553 139.759 51.4245 139.759C55.9864 139.759 59.9262 143.492 59.9262 148.261Z" fill="#262838"/>
<path d="M86.8831 148.261C86.8831 154.482 81.6992 159.666 75.4784 159.666C69.2577 159.666 64.0737 154.482 64.0737 148.261C64.0737 142.04 69.2577 136.856 75.4784 136.856C81.9065 136.856 86.8831 142.04 86.8831 148.261Z" fill="#262838"/>
<path d="M114.047 148.261C114.047 156.14 107.619 162.569 99.7393 162.569C91.8597 162.569 85.4316 156.14 85.4316 148.261C85.4316 140.381 91.8597 133.953 99.7393 133.953C107.619 133.953 114.047 140.381 114.047 148.261Z" fill="#262838"/>
<path d="M138.308 148.261C138.308 156.14 131.88 162.569 124 162.569C116.12 162.569 109.692 156.14 109.692 148.261C109.692 140.381 116.12 133.953 124 133.953C131.88 133.953 138.308 140.381 138.308 148.261Z" fill="#262838"/>
<path d="M162.569 148.261C162.569 156.14 156.14 162.569 148.261 162.569C140.381 162.569 133.953 156.14 133.953 148.261C133.953 140.381 140.381 133.953 148.261 133.953C156.14 133.953 162.569 140.381 162.569 148.261Z" fill="#262838"/>
<path d="M5.80602 196.783C5.80602 198.442 4.56187 199.686 2.90301 199.686C1.24415 199.686 0 198.442 0 196.783C0 195.124 1.24415 193.88 2.90301 193.88C4.35452 193.88 5.80602 195.124 5.80602 196.783Z" fill="#262838"/>
<path d="M32.7624 196.783C32.7624 199.893 30.2741 202.589 26.9564 202.589C23.846 202.589 21.1504 200.1 21.1504 196.783C21.1504 193.465 23.6387 190.977 26.9564 190.977C30.2741 190.977 32.7624 193.672 32.7624 196.783Z" fill="#262838"/>
<path d="M5.80602 172.522C5.80602 174.181 4.56187 175.425 2.90301 175.425C1.24415 175.425 0 174.181 0 172.522C0 170.863 1.24415 169.619 2.90301 169.619C4.35452 169.619 5.80602 170.863 5.80602 172.522Z" fill="#262838"/>
<path d="M32.7624 172.522C32.7624 175.632 30.2741 178.328 26.9564 178.328C23.846 178.328 21.1504 175.839 21.1504 172.522C21.1504 169.204 23.6387 166.716 26.9564 166.716C30.2741 166.716 32.7624 169.411 32.7624 172.522Z" fill="#262838"/>
<path d="M226.642 27.1639C226.642 30.2743 224.154 32.9699 220.836 32.9699C217.726 32.9699 215.03 30.4817 215.03 27.1639C215.03 23.8462 217.519 21.3579 220.836 21.3579C223.947 21.3579 226.642 23.8462 226.642 27.1639Z" fill="#262838"/>
<path d="M32.7624 221.043C32.7624 224.154 30.2741 226.849 26.9564 226.849C23.846 226.849 21.1504 224.361 21.1504 221.043C21.1504 217.726 23.6387 215.237 26.9564 215.237C30.2741 215.237 32.7624 217.933 32.7624 221.043Z" fill="#262838"/>
<path d="M57.0232 221.043C57.0232 224.154 54.5349 226.849 51.2172 226.849C48.1068 226.849 45.4111 224.361 45.4111 221.043C45.4111 217.726 47.8994 215.237 51.2172 215.237C54.5349 215.237 57.0232 217.933 57.0232 221.043Z" fill="#262838"/>
<path d="M81.2844 221.043C81.2844 224.154 78.7961 226.849 75.4784 226.849C72.368 226.849 69.6724 224.361 69.6724 221.043C69.6724 217.726 72.1607 215.237 75.4784 215.237C78.7961 215.237 81.2844 217.933 81.2844 221.043Z" fill="#262838"/>
<path d="M105.545 221.043C105.545 224.154 103.057 226.849 99.7391 226.849C96.6288 226.849 93.9331 224.361 93.9331 221.043C93.9331 217.726 96.4214 215.237 99.7391 215.237C103.057 215.237 105.545 217.933 105.545 221.043Z" fill="#262838"/>
<path d="M129.806 221.043C129.806 224.154 127.318 226.849 124 226.849C120.889 226.849 118.194 224.361 118.194 221.043C118.194 217.726 120.682 215.237 124 215.237C127.11 215.237 129.806 217.933 129.806 221.043Z" fill="#262838"/>
<path d="M154.067 221.043C154.067 224.154 151.579 226.849 148.261 226.849C145.151 226.849 142.455 224.361 142.455 221.043C142.455 217.726 144.943 215.237 148.261 215.237C151.371 215.237 154.067 217.933 154.067 221.043Z" fill="#262838"/>
<path d="M178.328 221.043C178.328 224.154 175.84 226.849 172.522 226.849C169.411 226.849 166.716 224.361 166.716 221.043C166.716 217.726 169.204 215.237 172.522 215.237C175.632 215.237 178.328 217.933 178.328 221.043Z" fill="#262838"/>
<path d="M202.381 221.043C202.381 224.154 199.893 226.849 196.575 226.849C193.465 226.849 190.769 224.361 190.769 221.043C190.769 217.726 193.257 215.237 196.575 215.237C199.893 215.237 202.381 217.933 202.381 221.043Z" fill="#262838"/>
<path d="M226.642 221.043C226.642 224.154 224.154 226.849 220.836 226.849C217.726 226.849 215.03 224.361 215.03 221.043C215.03 217.726 217.519 215.237 220.836 215.237C223.947 215.237 226.642 217.933 226.642 221.043Z" fill="#262838"/>
<path d="M226.642 51.4248C226.642 54.5352 224.154 57.2308 220.836 57.2308C217.726 57.2308 215.03 54.7425 215.03 51.4248C215.03 48.1071 217.519 45.6188 220.836 45.6188C223.947 45.6188 226.642 48.1071 226.642 51.4248Z" fill="#262838"/>
<path d="M226.642 75.4783C226.642 78.5886 224.154 81.2843 220.836 81.2843C217.726 81.2843 215.03 78.796 215.03 75.4783C215.03 72.1605 217.519 69.6722 220.836 69.6722C223.947 69.8796 226.642 72.3679 226.642 75.4783Z" fill="#262838"/>
<path d="M226.642 99.7391C226.642 102.849 224.154 105.545 220.836 105.545C217.726 105.545 215.03 103.057 215.03 99.7391C215.03 96.4214 217.519 93.9331 220.836 93.9331C223.947 94.1405 226.642 96.6288 226.642 99.7391Z" fill="#262838"/>
<path d="M226.642 124C226.642 127.11 224.154 129.806 220.836 129.806C217.726 129.806 215.03 127.318 215.03 124C215.03 120.682 217.519 118.194 220.836 118.194C223.947 118.401 226.642 120.89 226.642 124Z" fill="#262838"/>
<path d="M226.642 148.261C226.642 151.371 224.154 154.067 220.836 154.067C217.726 154.067 215.03 151.579 215.03 148.261C215.03 144.943 217.519 142.455 220.836 142.455C223.947 142.662 226.642 145.15 226.642 148.261Z" fill="#262838"/>
<path d="M226.642 196.783C226.642 199.893 224.154 202.589 220.836 202.589C217.726 202.589 215.03 200.1 215.03 196.783C215.03 193.465 217.519 190.977 220.836 190.977C223.947 190.977 226.642 193.672 226.642 196.783Z" fill="#262838"/>
<path d="M226.642 172.522C226.642 175.632 224.154 178.328 220.836 178.328C217.726 178.328 215.03 175.839 215.03 172.522C215.03 169.204 217.519 166.716 220.836 166.716C223.947 166.716 226.642 169.411 226.642 172.522Z" fill="#262838"/>
<path d="M59.9262 172.522C59.9262 177.291 56.1938 181.023 51.4245 181.023C46.6553 181.023 42.9229 177.291 42.9229 172.522C42.9229 167.752 46.6553 164.02 51.4245 164.02C55.9864 164.02 59.9262 167.752 59.9262 172.522Z" fill="#262838"/>
<path d="M205.284 75.4782C205.284 80.2475 201.552 83.9799 196.782 83.9799C192.013 83.9799 188.281 80.2475 188.281 75.4782C188.281 70.709 192.013 66.9766 196.782 66.9766C201.552 66.9766 205.284 70.9164 205.284 75.4782Z" fill="#262838"/>
<path d="M205.284 99.7391C205.284 104.508 201.552 108.241 196.782 108.241C192.013 108.241 188.281 104.508 188.281 99.7391C188.281 94.9699 192.013 91.2374 196.782 91.2374C201.552 91.2374 205.284 95.1772 205.284 99.7391Z" fill="#262838"/>
<path d="M205.284 124C205.284 128.769 201.552 132.502 196.782 132.502C192.013 132.502 188.281 128.769 188.281 124C188.281 119.231 192.013 115.498 196.782 115.498C201.552 115.498 205.284 119.231 205.284 124Z" fill="#262838"/>
<path d="M205.284 148.261C205.284 153.03 201.552 156.762 196.782 156.762C192.013 156.762 188.281 153.03 188.281 148.261C188.281 143.492 192.013 139.759 196.782 139.759C201.552 139.759 205.284 143.492 205.284 148.261Z" fill="#262838"/>
<path d="M205.284 172.522C205.284 177.291 201.552 181.023 196.782 181.023C192.013 181.023 188.281 177.291 188.281 172.522C188.281 167.752 192.013 164.02 196.782 164.02C201.552 164.02 205.284 167.752 205.284 172.522Z" fill="#262838"/>
<path d="M5.80602 221.044C5.80602 222.702 4.56187 223.947 2.90301 223.947C1.24415 223.947 0 222.702 0 221.044C0 219.385 1.24415 218.141 2.90301 218.141C4.35452 218.141 5.80602 219.385 5.80602 221.044Z" fill="#262838"/>
<path d="M54.1205 245.304C54.1205 246.963 52.8763 248.207 51.2175 248.207C49.5586 248.207 48.3145 246.963 48.3145 245.304C48.3145 243.646 49.5586 242.401 51.2175 242.401C52.8763 242.401 54.1205 243.646 54.1205 245.304Z" fill="#262838"/>
<path d="M78.3812 245.304C78.3812 246.963 77.1371 248.207 75.4782 248.207C73.8193 248.207 72.5752 246.963 72.5752 245.304C72.5752 243.646 73.8193 242.401 75.4782 242.401C77.1371 242.401 78.3812 243.646 78.3812 245.304Z" fill="#262838"/>
<path d="M102.642 245.304C102.642 246.963 101.398 248.207 99.7389 248.207C98.0801 248.207 96.8359 246.963 96.8359 245.304C96.8359 243.646 98.0801 242.401 99.7389 242.401C101.398 242.401 102.642 243.646 102.642 245.304Z" fill="#262838"/>
<path d="M126.903 245.304C126.903 246.963 125.659 248.207 124 248.207C122.341 248.207 121.097 246.963 121.097 245.304C121.097 243.646 122.341 242.401 124 242.401C125.659 242.401 126.903 243.646 126.903 245.304Z" fill="#262838"/>
<path d="M151.164 245.304C151.164 246.963 149.92 248.207 148.261 248.207C146.602 248.207 145.358 246.963 145.358 245.304C145.358 243.646 146.602 242.401 148.261 242.401C149.92 242.401 151.164 243.646 151.164 245.304Z" fill="#262838"/>
<path d="M175.425 245.304C175.425 246.963 174.181 248.207 172.522 248.207C170.863 248.207 169.619 246.963 169.619 245.304C169.619 243.646 170.863 242.401 172.522 242.401C174.181 242.401 175.425 243.646 175.425 245.304Z" fill="#262838"/>
<path d="M199.685 245.304C199.685 246.963 198.441 248.207 196.782 248.207C195.124 248.207 193.879 246.963 193.879 245.304C193.879 243.646 195.124 242.401 196.782 242.401C198.234 242.401 199.685 243.646 199.685 245.304Z" fill="#262838"/>
<path d="M223.947 245.304C223.947 246.963 222.703 248.207 221.044 248.207C219.385 248.207 218.141 246.963 218.141 245.304C218.141 243.646 219.385 242.401 221.044 242.401C222.495 242.401 223.947 243.646 223.947 245.304Z" fill="#262838"/>
<path d="M5.80602 245.304C5.80602 246.963 4.56187 248.207 2.90301 248.207C1.24415 248.207 0 246.963 0 245.304C0 243.646 1.24415 242.401 2.90301 242.401C4.35452 242.401 5.80602 243.646 5.80602 245.304Z" fill="#262838"/>
<path d="M29.8597 245.304C29.8597 246.963 28.6156 248.207 26.9567 248.207C25.2979 248.207 24.0537 246.963 24.0537 245.304C24.0537 243.646 25.2979 242.401 26.9567 242.401C28.6156 242.401 29.8597 243.646 29.8597 245.304Z" fill="#262838"/>
<path d="M248 245.304C248 246.963 246.756 248.207 245.097 248.207C243.438 248.207 242.194 246.963 242.194 245.304C242.194 243.646 243.438 242.401 245.097 242.401C246.756 242.401 248 243.646 248 245.304Z" fill="#262838"/>
<path d="M248 2.90301C248 4.56187 246.756 5.80602 245.097 5.80602C243.438 5.80602 242.194 4.56187 242.194 2.90301C242.194 1.24415 243.438 0 245.097 0C246.756 0 248 1.24415 248 2.90301Z" fill="#262838"/>
<path d="M248 27.1639C248 28.8227 246.756 30.0669 245.097 30.0669C243.438 30.0669 242.194 28.8227 242.194 27.1639C242.194 25.505 243.438 24.2609 245.097 24.2609C246.756 24.2609 248 25.505 248 27.1639Z" fill="#262838"/>
<path d="M248 51.4247C248 53.0836 246.756 54.3278 245.097 54.3278C243.438 54.3278 242.194 53.0836 242.194 51.4247C242.194 49.7659 243.438 48.5217 245.097 48.5217C246.756 48.5217 248 49.7659 248 51.4247Z" fill="#262838"/>
<path d="M248 75.4782C248 77.1371 246.756 78.3812 245.097 78.3812C243.438 78.3812 242.194 77.1371 242.194 75.4782C242.194 73.8193 243.438 72.5752 245.097 72.5752C246.756 72.7826 248 74.0267 248 75.4782Z" fill="#262838"/>
<path d="M248 99.7392C248 101.398 246.756 102.642 245.097 102.642C243.438 102.642 242.194 101.398 242.194 99.7392C242.194 98.0803 243.438 96.8362 245.097 96.8362C246.756 97.0435 248 98.2877 248 99.7392Z" fill="#262838"/>
<path d="M248 124C248 125.659 246.756 126.903 245.097 126.903C243.438 126.903 242.194 125.659 242.194 124C242.194 122.341 243.438 121.097 245.097 121.097C246.756 121.097 248 122.549 248 124Z" fill="#262838"/>
<path d="M248 148.261C248 149.92 246.756 151.164 245.097 151.164C243.438 151.164 242.194 149.92 242.194 148.261C242.194 146.602 243.438 145.358 245.097 145.358C246.756 145.358 248 146.809 248 148.261Z" fill="#262838"/>
<path d="M248 196.783C248 198.442 246.756 199.686 245.097 199.686C243.438 199.686 242.194 198.442 242.194 196.783C242.194 195.124 243.438 193.88 245.097 193.88C246.756 193.88 248 195.124 248 196.783Z" fill="#262838"/>
<path d="M248 172.522C248 174.181 246.756 175.425 245.097 175.425C243.438 175.425 242.194 174.181 242.194 172.522C242.194 170.863 243.438 169.619 245.097 169.619C246.756 169.619 248 170.863 248 172.522Z" fill="#262838"/>
<path d="M248 221.044C248 222.702 246.756 223.947 245.097 223.947C243.438 223.947 242.194 222.702 242.194 221.044C242.194 219.385 243.438 218.141 245.097 218.141C246.756 218.141 248 219.385 248 221.044Z" fill="#262838"/>
</g>
<defs>
<clipPath id="clip0_5_878">
<rect width="248" height="248" fill="white"/>
</clipPath>
</defs>
</svg>
