<svg width="248" height="248" viewBox="0 0 248 248" fill="none" xmlns="http://www.w3.org/2000/svg">
<g clip-path="url(#clip0_5_1371)">
<path d="M5.80602 2.90301C5.80602 4.56187 4.56187 5.80602 2.90301 5.80602C1.24415 5.80602 0 4.35452 0 2.90301C0 1.4515 1.24415 0 2.90301 0C4.35452 0 5.80602 1.24415 5.80602 2.90301Z" fill="#262838"/>
<path d="M29.8597 2.90301C29.8597 4.56187 28.6156 5.80602 26.9567 5.80602C25.2979 5.80602 24.0537 4.56187 24.0537 2.90301C24.0537 1.24415 25.5052 0 27.1641 0C28.6156 0 29.8597 1.24415 29.8597 2.90301Z" fill="#262838"/>
<path d="M54.1205 2.90301C54.1205 4.56187 52.8763 5.80602 51.2175 5.80602C49.5586 5.80602 48.3145 4.56187 48.3145 2.90301C48.3145 1.24415 49.766 0 51.4248 0C52.8763 0 54.1205 1.24415 54.1205 2.90301Z" fill="#262838"/>
<path d="M78.3812 2.90301C78.3812 4.56187 77.1371 5.80602 75.4782 5.80602C73.8193 5.80602 72.5752 4.56187 72.5752 2.90301C72.5752 1.24415 74.0267 0 75.4782 0C77.1371 0 78.3812 1.24415 78.3812 2.90301Z" fill="#262838"/>
<path d="M102.642 2.90301C102.642 4.56187 101.398 5.80602 99.7389 5.80602C98.0801 5.80602 96.8359 4.56187 96.8359 2.90301C96.8359 1.24415 98.2874 0 99.7389 0C101.398 0 102.642 1.24415 102.642 2.90301Z" fill="#262838"/>
<path d="M126.903 2.90301C126.903 4.56187 125.659 5.80602 124 5.80602C122.341 5.80602 121.097 4.56187 121.097 2.90301C121.097 1.24415 122.549 0 124 0C125.659 0 126.903 1.24415 126.903 2.90301Z" fill="#262838"/>
<path d="M151.164 2.90301C151.164 4.56187 149.92 5.80602 148.261 5.80602C146.602 5.80602 145.358 4.56187 145.358 2.90301C145.358 1.24415 146.809 0 148.261 0C149.92 0 151.164 1.24415 151.164 2.90301Z" fill="#262838"/>
<path d="M175.425 2.90301C175.425 4.56187 174.181 5.80602 172.522 5.80602C170.863 5.80602 169.619 4.56187 169.619 2.90301C169.619 1.24415 170.863 0 172.522 0C174.181 0 175.425 1.24415 175.425 2.90301Z" fill="#262838"/>
<path d="M199.685 2.90301C199.685 4.56187 198.441 5.80602 196.782 5.80602C195.124 5.80602 193.879 4.56187 193.879 2.90301C193.879 1.24415 195.124 0 196.782 0C198.234 0 199.685 1.24415 199.685 2.90301Z" fill="#262838"/>
<path d="M223.947 2.90301C223.947 4.56187 222.703 5.80602 221.044 5.80602C219.385 5.80602 218.141 4.56187 218.141 2.90301C218.141 1.24415 219.385 0 221.044 0C222.495 0 223.947 1.24415 223.947 2.90301Z" fill="#262838"/>
<path d="M248 2.90301C248 4.56187 246.756 5.80602 245.097 5.80602C243.438 5.80602 242.194 4.56187 242.194 2.90301C242.194 1.24415 243.438 0 245.097 0C246.756 0 248 1.24415 248 2.90301Z" fill="#262838"/>
<path d="M5.80602 27.1638C5.80602 28.8226 4.56187 30.0668 2.90301 30.0668C1.24415 30.0668 0 28.8226 0 27.1638C0 25.5049 1.24415 24.2607 2.90301 24.2607C4.35452 24.2607 5.80602 25.5049 5.80602 27.1638Z" fill="#262838"/>
<path d="M29.8597 27.1638C29.8597 28.8226 28.6156 30.0668 26.9567 30.0668C25.2979 30.0668 24.0537 28.8226 24.0537 27.1638C24.0537 25.5049 25.2979 24.2607 26.9567 24.2607C28.6156 24.2607 29.8597 25.5049 29.8597 27.1638Z" fill="#262838"/>
<path d="M54.1205 27.1638C54.1205 28.8226 52.8763 30.0668 51.2175 30.0668C49.5586 30.0668 48.3145 28.8226 48.3145 27.1638C48.3145 25.5049 49.5586 24.2607 51.2175 24.2607C52.8763 24.2607 54.1205 25.5049 54.1205 27.1638Z" fill="#262838"/>
<path d="M78.3812 27.1638C78.3812 28.8226 77.1371 30.0668 75.4782 30.0668C73.8193 30.0668 72.5752 28.8226 72.5752 27.1638C72.5752 25.5049 73.8193 24.2607 75.4782 24.2607C77.1371 24.2607 78.3812 25.5049 78.3812 27.1638Z" fill="#262838"/>
<path d="M102.642 27.1638C102.642 28.8226 101.398 30.0668 99.7389 30.0668C98.0801 30.0668 96.8359 28.8226 96.8359 27.1638C96.8359 25.5049 98.0801 24.2607 99.7389 24.2607C101.398 24.2607 102.642 25.5049 102.642 27.1638Z" fill="#262838"/>
<path d="M126.903 27.1638C126.903 28.8226 125.659 30.0668 124 30.0668C122.341 30.0668 121.097 28.8226 121.097 27.1638C121.097 25.5049 122.341 24.2607 124 24.2607C125.659 24.2607 126.903 25.5049 126.903 27.1638Z" fill="#262838"/>
<path d="M151.164 27.1638C151.164 28.8226 149.92 30.0668 148.261 30.0668C146.602 30.0668 145.358 28.8226 145.358 27.1638C145.358 25.5049 146.602 24.2607 148.261 24.2607C149.92 24.2607 151.164 25.5049 151.164 27.1638Z" fill="#262838"/>
<path d="M175.425 27.1638C175.425 28.8226 174.181 30.0668 172.522 30.0668C170.863 30.0668 169.619 28.8226 169.619 27.1638C169.619 25.5049 170.863 24.2607 172.522 24.2607C174.181 24.2607 175.425 25.5049 175.425 27.1638Z" fill="#262838"/>
<path d="M199.685 27.1638C199.685 28.8226 198.441 30.0668 196.782 30.0668C195.124 30.0668 193.879 28.8226 193.879 27.1638C193.879 25.5049 195.124 24.2607 196.782 24.2607C198.234 24.2607 199.685 25.5049 199.685 27.1638Z" fill="#262838"/>
<path d="M223.947 27.1638C223.947 28.8226 222.703 30.0668 221.044 30.0668C219.385 30.0668 218.141 28.8226 218.141 27.1638C218.141 25.5049 219.385 24.2607 221.044 24.2607C222.495 24.2607 223.947 25.5049 223.947 27.1638Z" fill="#262838"/>
<path d="M248 27.1638C248 28.8226 246.756 30.0668 245.097 30.0668C243.438 30.0668 242.194 28.8226 242.194 27.1638C242.194 25.5049 243.438 24.2607 245.097 24.2607C246.756 24.2607 248 25.5049 248 27.1638Z" fill="#262838"/>
<path d="M5.80602 51.425C5.80602 53.0838 4.56187 54.328 2.90301 54.328C1.24415 54.328 0 53.0838 0 51.425C0 49.7661 1.24415 48.522 2.90301 48.522C4.35452 48.522 5.80602 49.7661 5.80602 51.425Z" fill="#262838"/>
<path d="M29.8597 51.425C29.8597 53.0838 28.6156 54.328 26.9567 54.328C25.2979 54.328 24.0537 53.0838 24.0537 51.425C24.0537 49.7661 25.2979 48.522 26.9567 48.522C28.6156 48.522 29.8597 49.7661 29.8597 51.425Z" fill="#262838"/>
<path d="M54.1205 51.425C54.1205 53.0838 52.8763 54.328 51.2175 54.328C49.5586 54.328 48.3145 53.0838 48.3145 51.425C48.3145 49.7661 49.5586 48.522 51.2175 48.522C52.8763 48.522 54.1205 49.7661 54.1205 51.425Z" fill="#262838"/>
<path d="M78.3812 51.425C78.3812 53.0838 77.1371 54.328 75.4782 54.328C73.8193 54.328 72.5752 53.0838 72.5752 51.425C72.5752 49.7661 73.8193 48.522 75.4782 48.522C77.1371 48.522 78.3812 49.7661 78.3812 51.425Z" fill="#262838"/>
<path d="M102.642 51.425C102.642 53.0838 101.398 54.328 99.7389 54.328C98.0801 54.328 96.8359 53.0838 96.8359 51.425C96.8359 49.7661 98.0801 48.522 99.7389 48.522C101.398 48.522 102.642 49.7661 102.642 51.425Z" fill="#262838"/>
<path d="M126.903 51.425C126.903 53.0838 125.659 54.328 124 54.328C122.341 54.328 121.097 53.0838 121.097 51.425C121.097 49.7661 122.341 48.522 124 48.522C125.659 48.522 126.903 49.7661 126.903 51.425Z" fill="#262838"/>
<path d="M151.164 51.425C151.164 53.0838 149.92 54.328 148.261 54.328C146.602 54.328 145.358 53.0838 145.358 51.425C145.358 49.7661 146.602 48.522 148.261 48.522C149.92 48.522 151.164 49.7661 151.164 51.425Z" fill="#262838"/>
<path d="M175.425 51.425C175.425 53.0838 174.181 54.328 172.522 54.328C170.863 54.328 169.619 53.0838 169.619 51.425C169.619 49.7661 170.863 48.522 172.522 48.522C174.181 48.522 175.425 49.7661 175.425 51.425Z" fill="#262838"/>
<path d="M199.685 51.425C199.685 53.0838 198.441 54.328 196.782 54.328C195.124 54.328 193.879 53.0838 193.879 51.425C193.879 49.7661 195.124 48.522 196.782 48.522C198.234 48.522 199.685 49.7661 199.685 51.425Z" fill="#262838"/>
<path d="M223.947 51.425C223.947 53.0838 222.703 54.328 221.044 54.328C219.385 54.328 218.141 53.0838 218.141 51.425C218.141 49.7661 219.385 48.522 221.044 48.522C222.495 48.522 223.947 49.7661 223.947 51.425Z" fill="#262838"/>
<path d="M248 51.425C248 53.0838 246.756 54.328 245.097 54.328C243.438 54.328 242.194 53.0838 242.194 51.425C242.194 49.7661 243.438 48.522 245.097 48.522C246.756 48.522 248 49.7661 248 51.425Z" fill="#262838"/>
<path d="M5.80602 75.4782C5.80602 77.1371 4.56187 78.3812 2.90301 78.3812C1.24415 78.3812 0 77.1371 0 75.4782C0 73.8193 1.24415 72.5752 2.90301 72.5752C4.35452 72.7826 5.80602 74.0267 5.80602 75.4782Z" fill="#262838"/>
<path d="M29.8597 75.4782C29.8597 77.1371 28.6156 78.3812 26.9567 78.3812C25.2979 78.3812 24.0537 77.1371 24.0537 75.4782C24.0537 73.8193 25.2979 72.5752 26.9567 72.5752C28.6156 72.7826 29.8597 74.0267 29.8597 75.4782Z" fill="#262838"/>
<path d="M54.1205 75.4782C54.1205 77.1371 52.8763 78.3812 51.2175 78.3812C49.5586 78.3812 48.3145 77.1371 48.3145 75.4782C48.3145 73.8193 49.5586 72.5752 51.2175 72.5752C52.8763 72.7826 54.1205 74.0267 54.1205 75.4782Z" fill="#262838"/>
<path d="M78.3812 75.4782C78.3812 77.1371 77.1371 78.3812 75.4782 78.3812C73.8193 78.3812 72.5752 77.1371 72.5752 75.4782C72.5752 73.8193 73.8193 72.5752 75.4782 72.5752C77.1371 72.7826 78.3812 74.0267 78.3812 75.4782Z" fill="#262838"/>
<path d="M102.642 75.4782C102.642 77.1371 101.398 78.3812 99.7389 78.3812C98.0801 78.3812 96.8359 77.1371 96.8359 75.4782C96.8359 73.8193 98.0801 72.5752 99.7389 72.5752C101.398 72.7826 102.642 74.0267 102.642 75.4782Z" fill="#262838"/>
<path d="M126.903 75.4782C126.903 77.1371 125.659 78.3812 124 78.3812C122.341 78.3812 121.097 77.1371 121.097 75.4782C121.097 73.8193 122.341 72.5752 124 72.5752C125.659 72.7826 126.903 74.0267 126.903 75.4782Z" fill="#262838"/>
<path d="M151.164 75.4782C151.164 77.1371 149.92 78.3812 148.261 78.3812C146.602 78.3812 145.358 77.1371 145.358 75.4782C145.358 73.8193 146.602 72.5752 148.261 72.5752C149.92 72.7826 151.164 74.0267 151.164 75.4782Z" fill="#262838"/>
<path d="M175.425 75.4782C175.425 77.1371 174.181 78.3812 172.522 78.3812C170.863 78.3812 169.619 77.1371 169.619 75.4782C169.619 73.8193 170.863 72.5752 172.522 72.5752C174.181 72.7826 175.425 74.0267 175.425 75.4782Z" fill="#262838"/>
<path d="M199.685 75.4782C199.685 77.1371 198.441 78.3812 196.782 78.3812C195.124 78.3812 193.879 77.1371 193.879 75.4782C193.879 73.8193 195.124 72.5752 196.782 72.5752C198.234 72.7826 199.685 74.0267 199.685 75.4782Z" fill="#262838"/>
<path d="M223.947 75.4782C223.947 77.1371 222.703 78.3812 221.044 78.3812C219.385 78.3812 218.141 77.1371 218.141 75.4782C218.141 73.8193 219.385 72.5752 221.044 72.5752C222.495 72.7826 223.947 74.0267 223.947 75.4782Z" fill="#262838"/>
<path d="M248 75.4782C248 77.1371 246.756 78.3812 245.097 78.3812C243.438 78.3812 242.194 77.1371 242.194 75.4782C242.194 73.8193 243.438 72.5752 245.097 72.5752C246.756 72.7826 248 74.0267 248 75.4782Z" fill="#262838"/>
<path d="M5.80602 99.7389C5.80602 101.398 4.56187 102.642 2.90301 102.642C1.24415 102.642 0 101.398 0 99.7389C0 98.0801 1.24415 96.8359 2.90301 96.8359C4.35452 97.0433 5.80602 98.2874 5.80602 99.7389Z" fill="#262838"/>
<path d="M29.8597 99.7389C29.8597 101.398 28.6156 102.642 26.9567 102.642C25.2979 102.642 24.0537 101.398 24.0537 99.7389C24.0537 98.0801 25.2979 96.8359 26.9567 96.8359C28.6156 97.0433 29.8597 98.2874 29.8597 99.7389Z" fill="#262838"/>
<path d="M54.1205 99.7389C54.1205 101.398 52.8763 102.642 51.2175 102.642C49.5586 102.642 48.3145 101.398 48.3145 99.7389C48.3145 98.0801 49.5586 96.8359 51.2175 96.8359C52.8763 97.0433 54.1205 98.2874 54.1205 99.7389Z" fill="#262838"/>
<path d="M78.3812 99.7389C78.3812 101.398 77.1371 102.642 75.4782 102.642C73.8193 102.642 72.5752 101.398 72.5752 99.7389C72.5752 98.0801 73.8193 96.8359 75.4782 96.8359C77.1371 97.0433 78.3812 98.2874 78.3812 99.7389Z" fill="#262838"/>
<path d="M102.642 99.7389C102.642 101.398 101.398 102.642 99.7389 102.642C98.0801 102.642 96.8359 101.398 96.8359 99.7389C96.8359 98.0801 98.0801 96.8359 99.7389 96.8359C101.398 97.0433 102.642 98.2874 102.642 99.7389Z" fill="#262838"/>
<path d="M126.903 99.7389C126.903 101.398 125.659 102.642 124 102.642C122.341 102.642 121.097 101.398 121.097 99.7389C121.097 98.0801 122.341 96.8359 124 96.8359C125.659 97.0433 126.903 98.2874 126.903 99.7389Z" fill="#262838"/>
<path d="M151.164 99.7389C151.164 101.398 149.92 102.642 148.261 102.642C146.602 102.642 145.358 101.398 145.358 99.7389C145.358 98.0801 146.602 96.8359 148.261 96.8359C149.92 97.0433 151.164 98.2874 151.164 99.7389Z" fill="#262838"/>
<path d="M175.425 99.7389C175.425 101.398 174.181 102.642 172.522 102.642C170.863 102.642 169.619 101.398 169.619 99.7389C169.619 98.0801 170.863 96.8359 172.522 96.8359C174.181 97.0433 175.425 98.2874 175.425 99.7389Z" fill="#262838"/>
<path d="M199.685 99.7389C199.685 101.398 198.441 102.642 196.782 102.642C195.124 102.642 193.879 101.398 193.879 99.7389C193.879 98.0801 195.124 96.8359 196.782 96.8359C198.234 97.0433 199.685 98.2874 199.685 99.7389Z" fill="#262838"/>
<path d="M223.947 99.7389C223.947 101.398 222.703 102.642 221.044 102.642C219.385 102.642 218.141 101.398 218.141 99.7389C218.141 98.0801 219.385 96.8359 221.044 96.8359C222.495 97.0433 223.947 98.2874 223.947 99.7389Z" fill="#262838"/>
<path d="M248 99.7389C248 101.398 246.756 102.642 245.097 102.642C243.438 102.642 242.194 101.398 242.194 99.7389C242.194 98.0801 243.438 96.8359 245.097 96.8359C246.756 97.0433 248 98.2874 248 99.7389Z" fill="#262838"/>
<path d="M5.80602 124C5.80602 125.659 4.56187 126.903 2.90301 126.903C1.24415 126.903 0 125.659 0 124C0 122.341 1.24415 121.097 2.90301 121.097C4.35452 121.097 5.80602 122.549 5.80602 124Z" fill="#262838"/>
<path d="M29.8597 124C29.8597 125.659 28.6156 126.903 26.9567 126.903C25.2979 126.903 24.0537 125.659 24.0537 124C24.0537 122.341 25.2979 121.097 26.9567 121.097C28.6156 121.097 29.8597 122.549 29.8597 124Z" fill="#262838"/>
<path d="M54.1205 124C54.1205 125.659 52.8763 126.903 51.2175 126.903C49.5586 126.903 48.3145 125.659 48.3145 124C48.3145 122.341 49.5586 121.097 51.2175 121.097C52.8763 121.097 54.1205 122.549 54.1205 124Z" fill="#262838"/>
<path d="M78.3812 124C78.3812 125.659 77.1371 126.903 75.4782 126.903C73.8193 126.903 72.5752 125.659 72.5752 124C72.5752 122.341 73.8193 121.097 75.4782 121.097C77.1371 121.097 78.3812 122.549 78.3812 124Z" fill="#262838"/>
<path d="M102.642 124C102.642 125.659 101.398 126.903 99.7389 126.903C98.0801 126.903 96.8359 125.659 96.8359 124C96.8359 122.341 98.0801 121.097 99.7389 121.097C101.398 121.097 102.642 122.549 102.642 124Z" fill="#262838"/>
<path d="M126.903 124C126.903 125.659 125.659 126.903 124 126.903C122.341 126.903 121.097 125.659 121.097 124C121.097 122.341 122.341 121.097 124 121.097C125.659 121.097 126.903 122.549 126.903 124Z" fill="#262838"/>
<path d="M151.164 124C151.164 125.659 149.92 126.903 148.261 126.903C146.602 126.903 145.358 125.659 145.358 124C145.358 122.341 146.602 121.097 148.261 121.097C149.92 121.097 151.164 122.549 151.164 124Z" fill="#262838"/>
<path d="M175.425 124C175.425 125.659 174.181 126.903 172.522 126.903C170.863 126.903 169.619 125.659 169.619 124C169.619 122.341 170.863 121.097 172.522 121.097C174.181 121.097 175.425 122.549 175.425 124Z" fill="#262838"/>
<path d="M199.685 124C199.685 125.659 198.441 126.903 196.782 126.903C195.124 126.903 193.879 125.659 193.879 124C193.879 122.341 195.124 121.097 196.782 121.097C198.234 121.097 199.685 122.549 199.685 124Z" fill="#262838"/>
<path d="M223.947 124C223.947 125.659 222.703 126.903 221.044 126.903C219.385 126.903 218.141 125.659 218.141 124C218.141 122.341 219.385 121.097 221.044 121.097C222.495 121.097 223.947 122.549 223.947 124Z" fill="#262838"/>
<path d="M248 124C248 125.659 246.756 126.903 245.097 126.903C243.438 126.903 242.194 125.659 242.194 124C242.194 122.341 243.438 121.097 245.097 121.097C246.756 121.097 248 122.549 248 124Z" fill="#262838"/>
<path d="M5.80602 148.261C5.80602 149.92 4.56187 151.164 2.90301 151.164C1.24415 151.164 0 149.92 0 148.261C0 146.602 1.24415 145.358 2.90301 145.358C4.35452 145.358 5.80602 146.809 5.80602 148.261Z" fill="#262838"/>
<path d="M29.8597 148.261C29.8597 149.92 28.6156 151.164 26.9567 151.164C25.2979 151.164 24.0537 149.92 24.0537 148.261C24.0537 146.602 25.2979 145.358 26.9567 145.358C28.6156 145.358 29.8597 146.809 29.8597 148.261Z" fill="#262838"/>
<path d="M54.1205 148.261C54.1205 149.92 52.8763 151.164 51.2175 151.164C49.5586 151.164 48.3145 149.92 48.3145 148.261C48.3145 146.602 49.5586 145.358 51.2175 145.358C52.8763 145.358 54.1205 146.809 54.1205 148.261Z" fill="#262838"/>
<path d="M78.3812 148.261C78.3812 149.92 77.1371 151.164 75.4782 151.164C73.8193 151.164 72.5752 149.92 72.5752 148.261C72.5752 146.602 73.8193 145.358 75.4782 145.358C77.1371 145.358 78.3812 146.809 78.3812 148.261Z" fill="#262838"/>
<path d="M102.642 148.261C102.642 149.92 101.398 151.164 99.7389 151.164C98.0801 151.164 96.8359 149.92 96.8359 148.261C96.8359 146.602 98.0801 145.358 99.7389 145.358C101.398 145.358 102.642 146.809 102.642 148.261Z" fill="#262838"/>
<path d="M126.903 148.261C126.903 149.92 125.659 151.164 124 151.164C122.341 151.164 121.097 149.92 121.097 148.261C121.097 146.602 122.341 145.358 124 145.358C125.659 145.358 126.903 146.809 126.903 148.261Z" fill="#262838"/>
<path d="M151.164 148.261C151.164 149.92 149.92 151.164 148.261 151.164C146.602 151.164 145.358 149.92 145.358 148.261C145.358 146.602 146.602 145.358 148.261 145.358C149.92 145.358 151.164 146.809 151.164 148.261Z" fill="#262838"/>
<path d="M175.425 148.261C175.425 149.92 174.181 151.164 172.522 151.164C170.863 151.164 169.619 149.92 169.619 148.261C169.619 146.602 170.863 145.358 172.522 145.358C174.181 145.358 175.425 146.809 175.425 148.261Z" fill="#262838"/>
<path d="M199.685 148.261C199.685 149.92 198.441 151.164 196.782 151.164C195.124 151.164 193.879 149.92 193.879 148.261C193.879 146.602 195.124 145.358 196.782 145.358C198.234 145.358 199.685 146.809 199.685 148.261Z" fill="#262838"/>
<path d="M223.947 148.261C223.947 149.92 222.703 151.164 221.044 151.164C219.385 151.164 218.141 149.92 218.141 148.261C218.141 146.602 219.385 145.358 221.044 145.358C222.495 145.358 223.947 146.809 223.947 148.261Z" fill="#262838"/>
<path d="M248 148.261C248 149.92 246.756 151.164 245.097 151.164C243.438 151.164 242.194 149.92 242.194 148.261C242.194 146.602 243.438 145.358 245.097 145.358C246.756 145.358 248 146.809 248 148.261Z" fill="#262838"/>
<path d="M5.80602 172.522C5.80602 174.181 4.56187 175.425 2.90301 175.425C1.24415 175.425 0 174.181 0 172.522C0 170.863 1.24415 169.619 2.90301 169.619C4.35452 169.619 5.80602 170.863 5.80602 172.522Z" fill="#262838"/>
<path d="M29.8597 172.522C29.8597 174.181 28.6156 175.425 26.9567 175.425C25.2979 175.425 24.0537 174.181 24.0537 172.522C24.0537 170.863 25.2979 169.619 26.9567 169.619C28.6156 169.619 29.8597 170.863 29.8597 172.522Z" fill="#262838"/>
<path d="M54.1205 172.522C54.1205 174.181 52.8763 175.425 51.2175 175.425C49.5586 175.425 48.3145 174.181 48.3145 172.522C48.3145 170.863 49.5586 169.619 51.2175 169.619C52.8763 169.619 54.1205 170.863 54.1205 172.522Z" fill="#262838"/>
<path d="M78.3812 172.522C78.3812 174.181 77.1371 175.425 75.4782 175.425C73.8193 175.425 72.5752 174.181 72.5752 172.522C72.5752 170.863 73.8193 169.619 75.4782 169.619C77.1371 169.619 78.3812 170.863 78.3812 172.522Z" fill="#262838"/>
<path d="M102.642 172.522C102.642 174.181 101.398 175.425 99.7389 175.425C98.0801 175.425 96.8359 174.181 96.8359 172.522C96.8359 170.863 98.0801 169.619 99.7389 169.619C101.398 169.619 102.642 170.863 102.642 172.522Z" fill="#262838"/>
<path d="M126.903 172.522C126.903 174.181 125.659 175.425 124 175.425C122.341 175.425 121.097 174.181 121.097 172.522C121.097 170.863 122.341 169.619 124 169.619C125.659 169.619 126.903 170.863 126.903 172.522Z" fill="#262838"/>
<path d="M151.164 172.522C151.164 174.181 149.92 175.425 148.261 175.425C146.602 175.425 145.358 174.181 145.358 172.522C145.358 170.863 146.602 169.619 148.261 169.619C149.92 169.619 151.164 170.863 151.164 172.522Z" fill="#262838"/>
<path d="M175.425 172.522C175.425 174.181 174.181 175.425 172.522 175.425C170.863 175.425 169.619 174.181 169.619 172.522C169.619 170.863 170.863 169.619 172.522 169.619C174.181 169.619 175.425 170.863 175.425 172.522Z" fill="#262838"/>
<path d="M199.685 172.522C199.685 174.181 198.441 175.425 196.782 175.425C195.124 175.425 193.879 174.181 193.879 172.522C193.879 170.863 195.124 169.619 196.782 169.619C198.234 169.619 199.685 170.863 199.685 172.522Z" fill="#262838"/>
<path d="M223.947 172.522C223.947 174.181 222.703 175.425 221.044 175.425C219.385 175.425 218.141 174.181 218.141 172.522C218.141 170.863 219.385 169.619 221.044 169.619C222.495 169.619 223.947 170.863 223.947 172.522Z" fill="#262838"/>
<path d="M248 172.522C248 174.181 246.756 175.425 245.097 175.425C243.438 175.425 242.194 174.181 242.194 172.522C242.194 170.863 243.438 169.619 245.097 169.619C246.756 169.619 248 170.863 248 172.522Z" fill="#262838"/>
<path d="M5.80602 221.044C5.80602 222.703 4.56187 223.947 2.90301 223.947C1.24415 223.947 0 222.703 0 221.044C0 219.385 1.24415 218.141 2.90301 218.141C4.35452 218.141 5.80602 219.385 5.80602 221.044Z" fill="#262838"/>
<path d="M29.8597 221.044C29.8597 222.703 28.6156 223.947 26.9567 223.947C25.2979 223.947 24.0537 222.703 24.0537 221.044C24.0537 219.385 25.2979 218.141 26.9567 218.141C28.6156 218.141 29.8597 219.385 29.8597 221.044Z" fill="#262838"/>
<path d="M54.1205 221.044C54.1205 222.703 52.8763 223.947 51.2175 223.947C49.5586 223.947 48.3145 222.703 48.3145 221.044C48.3145 219.385 49.5586 218.141 51.2175 218.141C52.8763 218.141 54.1205 219.385 54.1205 221.044Z" fill="#262838"/>
<path d="M78.3812 221.044C78.3812 222.703 77.1371 223.947 75.4782 223.947C73.8193 223.947 72.5752 222.703 72.5752 221.044C72.5752 219.385 73.8193 218.141 75.4782 218.141C77.1371 218.141 78.3812 219.385 78.3812 221.044Z" fill="#262838"/>
<path d="M102.642 221.044C102.642 222.703 101.398 223.947 99.7389 223.947C98.0801 223.947 96.8359 222.703 96.8359 221.044C96.8359 219.385 98.0801 218.141 99.7389 218.141C101.398 218.141 102.642 219.385 102.642 221.044Z" fill="#262838"/>
<path d="M126.903 221.044C126.903 222.703 125.659 223.947 124 223.947C122.341 223.947 121.097 222.703 121.097 221.044C121.097 219.385 122.341 218.141 124 218.141C125.659 218.141 126.903 219.385 126.903 221.044Z" fill="#262838"/>
<path d="M151.164 221.044C151.164 222.703 149.92 223.947 148.261 223.947C146.602 223.947 145.358 222.703 145.358 221.044C145.358 219.385 146.602 218.141 148.261 218.141C149.92 218.141 151.164 219.385 151.164 221.044Z" fill="#262838"/>
<path d="M175.425 221.044C175.425 222.703 174.181 223.947 172.522 223.947C170.863 223.947 169.619 222.703 169.619 221.044C169.619 219.385 170.863 218.141 172.522 218.141C174.181 218.141 175.425 219.385 175.425 221.044Z" fill="#262838"/>
<path d="M199.685 221.044C199.685 222.703 198.441 223.947 196.782 223.947C195.124 223.947 193.879 222.703 193.879 221.044C193.879 219.385 195.124 218.141 196.782 218.141C198.234 218.141 199.685 219.385 199.685 221.044Z" fill="#262838"/>
<path d="M223.947 221.044C223.947 222.703 222.703 223.947 221.044 223.947C219.385 223.947 218.141 222.703 218.141 221.044C218.141 219.385 219.385 218.141 221.044 218.141C222.495 218.141 223.947 219.385 223.947 221.044Z" fill="#262838"/>
<path d="M248 221.044C248 222.703 246.756 223.947 245.097 223.947C243.438 223.947 242.194 222.703 242.194 221.044C242.194 219.385 243.438 218.141 245.097 218.141C246.756 218.141 248 219.385 248 221.044Z" fill="#262838"/>
<path d="M5.80602 196.782C5.80602 198.441 4.56187 199.685 2.90301 199.685C1.24415 199.685 0 198.441 0 196.782C0 195.124 1.24415 193.879 2.90301 193.879C4.35452 193.879 5.80602 195.124 5.80602 196.782Z" fill="#262838"/>
<path d="M29.8597 196.782C29.8597 198.441 28.6156 199.685 26.9567 199.685C25.2979 199.685 24.0537 198.441 24.0537 196.782C24.0537 195.124 25.2979 193.879 26.9567 193.879C28.6156 193.879 29.8597 195.124 29.8597 196.782Z" fill="#262838"/>
<path d="M54.1205 196.782C54.1205 198.441 52.8763 199.685 51.2175 199.685C49.5586 199.685 48.3145 198.441 48.3145 196.782C48.3145 195.124 49.5586 193.879 51.2175 193.879C52.8763 193.879 54.1205 195.124 54.1205 196.782Z" fill="#262838"/>
<path d="M78.3812 196.782C78.3812 198.441 77.1371 199.685 75.4782 199.685C73.8193 199.685 72.5752 198.441 72.5752 196.782C72.5752 195.124 73.8193 193.879 75.4782 193.879C77.1371 193.879 78.3812 195.124 78.3812 196.782Z" fill="#262838"/>
<path d="M102.642 196.782C102.642 198.441 101.398 199.685 99.7389 199.685C98.0801 199.685 96.8359 198.441 96.8359 196.782C96.8359 195.124 98.0801 193.879 99.7389 193.879C101.398 193.879 102.642 195.124 102.642 196.782Z" fill="#262838"/>
<path d="M126.903 196.782C126.903 198.441 125.659 199.685 124 199.685C122.341 199.685 121.097 198.441 121.097 196.782C121.097 195.124 122.341 193.879 124 193.879C125.659 193.879 126.903 195.124 126.903 196.782Z" fill="#262838"/>
<path d="M151.164 196.782C151.164 198.441 149.92 199.685 148.261 199.685C146.602 199.685 145.358 198.441 145.358 196.782C145.358 195.124 146.602 193.879 148.261 193.879C149.92 193.879 151.164 195.124 151.164 196.782Z" fill="#262838"/>
<path d="M175.425 196.782C175.425 198.441 174.181 199.685 172.522 199.685C170.863 199.685 169.619 198.441 169.619 196.782C169.619 195.124 170.863 193.879 172.522 193.879C174.181 193.879 175.425 195.124 175.425 196.782Z" fill="#262838"/>
<path d="M199.685 196.782C199.685 198.441 198.441 199.685 196.782 199.685C195.124 199.685 193.879 198.441 193.879 196.782C193.879 195.124 195.124 193.879 196.782 193.879C198.234 193.879 199.685 195.124 199.685 196.782Z" fill="#262838"/>
<path d="M223.947 196.782C223.947 198.441 222.703 199.685 221.044 199.685C219.385 199.685 218.141 198.441 218.141 196.782C218.141 195.124 219.385 193.879 221.044 193.879C222.495 193.879 223.947 195.124 223.947 196.782Z" fill="#262838"/>
<path d="M248 196.782C248 198.441 246.756 199.685 245.097 199.685C243.438 199.685 242.194 198.441 242.194 196.782C242.194 195.124 243.438 193.879 245.097 193.879C246.756 193.879 248 195.124 248 196.782Z" fill="#262838"/>
<path d="M5.80602 245.304C5.80602 246.963 4.56187 248.207 2.90301 248.207C1.24415 248.207 0 246.963 0 245.304C0 243.646 1.24415 242.401 2.90301 242.401C4.35452 242.401 5.80602 243.646 5.80602 245.304Z" fill="#262838"/>
<path d="M29.8597 245.304C29.8597 246.963 28.6156 248.207 26.9567 248.207C25.2979 248.207 24.0537 246.963 24.0537 245.304C24.0537 243.646 25.2979 242.401 26.9567 242.401C28.6156 242.401 29.8597 243.646 29.8597 245.304Z" fill="#262838"/>
<path d="M54.1205 245.304C54.1205 246.963 52.8763 248.207 51.2175 248.207C49.5586 248.207 48.3145 246.963 48.3145 245.304C48.3145 243.646 49.5586 242.401 51.2175 242.401C52.8763 242.401 54.1205 243.646 54.1205 245.304Z" fill="#262838"/>
<path d="M78.3812 245.304C78.3812 246.963 77.1371 248.207 75.4782 248.207C73.8193 248.207 72.5752 246.963 72.5752 245.304C72.5752 243.646 73.8193 242.401 75.4782 242.401C77.1371 242.401 78.3812 243.646 78.3812 245.304Z" fill="#262838"/>
<path d="M102.642 245.304C102.642 246.963 101.398 248.207 99.7389 248.207C98.0801 248.207 96.8359 246.963 96.8359 245.304C96.8359 243.646 98.0801 242.401 99.7389 242.401C101.398 242.401 102.642 243.646 102.642 245.304Z" fill="#262838"/>
<path d="M126.903 245.304C126.903 246.963 125.659 248.207 124 248.207C122.341 248.207 121.097 246.963 121.097 245.304C121.097 243.646 122.341 242.401 124 242.401C125.659 242.401 126.903 243.646 126.903 245.304Z" fill="#262838"/>
<path d="M151.164 245.304C151.164 246.963 149.92 248.207 148.261 248.207C146.602 248.207 145.358 246.963 145.358 245.304C145.358 243.646 146.602 242.401 148.261 242.401C149.92 242.401 151.164 243.646 151.164 245.304Z" fill="#262838"/>
<path d="M175.425 245.304C175.425 246.963 174.181 248.207 172.522 248.207C170.863 248.207 169.619 246.963 169.619 245.304C169.619 243.646 170.863 242.401 172.522 242.401C174.181 242.401 175.425 243.646 175.425 245.304Z" fill="#262838"/>
<path d="M199.685 245.304C199.685 246.963 198.441 248.207 196.782 248.207C195.124 248.207 193.879 246.963 193.879 245.304C193.879 243.646 195.124 242.401 196.782 242.401C198.234 242.401 199.685 243.646 199.685 245.304Z" fill="#262838"/>
<path d="M223.947 245.304C223.947 246.963 222.703 248.207 221.044 248.207C219.385 248.207 218.141 246.963 218.141 245.304C218.141 243.646 219.385 242.401 221.044 242.401C222.495 242.401 223.947 243.646 223.947 245.304Z" fill="#262838"/>
<path d="M248 245.304C248 246.963 246.756 248.207 245.097 248.207C243.438 248.207 242.194 246.963 242.194 245.304C242.194 243.646 243.438 242.401 245.097 242.401C246.756 242.401 248 243.646 248 245.304Z" fill="#262838"/>
<path d="M0 245.304C0 243.646 1.24415 242.401 2.90301 242.401C4.56187 242.401 5.80602 243.646 5.80602 245.304C5.80602 246.963 4.56187 248.207 2.90301 248.207C1.24415 248 0 246.756 0 245.304Z" fill="#262838"/>
<path d="M23.0166 221.043C23.0166 218.762 24.8828 217.104 26.9564 217.104C29.03 217.104 30.8962 218.97 30.8962 221.043C30.8962 223.117 29.03 224.983 26.9564 224.983C24.8828 224.983 23.0166 223.117 23.0166 221.043Z" fill="#262838"/>
<path d="M46.2407 196.783C46.2407 193.88 48.5217 191.599 51.4247 191.599C54.3277 191.599 56.6086 193.88 56.6086 196.783C56.6086 199.686 54.3277 201.967 51.4247 201.967C48.5217 201.967 46.2407 199.686 46.2407 196.783Z" fill="#262838"/>
<path d="M69.2573 172.522C69.2573 168.996 72.1603 166.301 75.4781 166.301C78.7958 166.301 81.6988 169.204 81.6988 172.522C81.6988 175.839 78.7958 178.742 75.4781 178.742C72.1603 178.742 69.2573 176.047 69.2573 172.522Z" fill="#262838"/>
<path d="M92.4814 148.261C92.4814 144.114 95.7992 140.796 99.9463 140.796C104.093 140.796 107.411 144.114 107.411 148.261C107.411 152.408 104.093 155.726 99.9463 155.726C95.7992 155.726 92.4814 152.408 92.4814 148.261Z" fill="#262838"/>
<path d="M115.499 124C115.499 119.231 119.231 115.499 124 115.499C128.769 115.499 132.502 119.231 132.502 124C132.502 128.769 128.769 132.502 124 132.502C119.231 132.502 115.499 128.769 115.499 124Z" fill="#262838"/>
<path d="M138.515 99.739C138.515 94.3477 142.87 89.9932 148.261 89.9932C153.652 89.9932 158.007 94.3477 158.007 99.739C158.007 105.13 153.652 109.485 148.261 109.485C142.87 109.485 138.515 105.13 138.515 99.739Z" fill="#262838"/>
<path d="M161.739 75.4784C161.739 69.465 166.508 64.6958 172.522 64.6958C178.535 64.6958 183.304 69.465 183.304 75.4784C183.304 81.4918 178.535 86.261 172.522 86.261C166.508 86.261 161.739 81.4918 161.739 75.4784Z" fill="#262838"/>
<path d="M184.756 51.4247C184.756 44.7893 190.147 39.3979 196.783 39.3979C203.418 39.3979 208.809 44.7893 208.809 51.4247C208.809 58.0602 203.418 63.4515 196.783 63.4515C190.147 63.2441 184.756 57.8528 184.756 51.4247Z" fill="#262838"/>
<path d="M207.772 27.1636C207.772 19.9061 213.578 14.1001 220.836 14.1001C228.094 14.1001 233.9 19.9061 233.9 27.1636C233.9 34.4212 228.094 40.2272 220.836 40.2272C213.786 40.2272 207.772 34.4212 207.772 27.1636Z" fill="#262838"/>
<path d="M46.2407 221.043C46.2407 218.14 48.5217 215.859 51.4247 215.859C54.3277 215.859 56.6086 218.14 56.6086 221.043C56.6086 223.946 54.3277 226.227 51.4247 226.227C48.5217 226.227 46.2407 223.739 46.2407 221.043Z" fill="#262838"/>
<path d="M69.2573 196.783C69.2573 193.258 72.1603 190.562 75.4781 190.562C78.7958 190.562 81.6988 193.465 81.6988 196.783C81.6988 200.1 78.7958 203.003 75.4781 203.003C72.1603 203.003 69.2573 200.308 69.2573 196.783Z" fill="#262838"/>
<path d="M92.4814 172.522C92.4814 168.374 95.7992 165.057 99.9463 165.057C104.093 165.057 107.411 168.374 107.411 172.522C107.411 176.669 104.093 179.986 99.9463 179.986C95.7992 179.986 92.4814 176.669 92.4814 172.522Z" fill="#262838"/>
<path d="M115.499 148.261C115.499 143.492 119.231 139.759 124 139.759C128.769 139.759 132.502 143.492 132.502 148.261C132.502 153.03 128.769 156.763 124 156.763C119.231 156.763 115.499 153.03 115.499 148.261Z" fill="#262838"/>
<path d="M138.515 124C138.515 118.609 142.87 114.254 148.261 114.254C153.652 114.254 158.007 118.609 158.007 124C158.007 129.392 153.652 133.746 148.261 133.746C142.87 133.746 138.515 129.392 138.515 124Z" fill="#262838"/>
<path d="M161.739 99.7391C161.739 93.7258 166.508 88.9565 172.522 88.9565C178.535 88.9565 183.304 93.7258 183.304 99.7391C183.304 105.753 178.535 110.522 172.522 110.522C166.508 110.522 161.739 105.753 161.739 99.7391Z" fill="#262838"/>
<path d="M184.756 75.4784C184.756 68.843 190.147 63.4517 196.783 63.4517C203.418 63.4517 208.809 68.843 208.809 75.4784C208.809 82.1139 203.418 87.5052 196.783 87.5052C190.147 87.5052 184.756 82.1139 184.756 75.4784Z" fill="#262838"/>
<path d="M207.772 51.4249C207.772 44.1673 213.578 38.3613 220.836 38.3613C228.094 38.3613 233.9 44.1673 233.9 51.4249C233.9 58.6824 228.094 64.4884 220.836 64.4884C213.786 64.4884 207.772 58.6824 207.772 51.4249Z" fill="#262838"/>
<path d="M69.2573 221.043C69.2573 217.518 72.1603 214.823 75.4781 214.823C78.7958 214.823 81.6988 217.726 81.6988 221.043C81.6988 224.361 78.7958 227.264 75.4781 227.264C72.1603 227.264 69.2573 224.361 69.2573 221.043Z" fill="#262838"/>
<path d="M92.4814 196.783C92.4814 192.636 95.7992 189.318 99.9463 189.318C104.093 189.318 107.411 192.636 107.411 196.783C107.411 200.93 104.093 204.248 99.9463 204.248C95.7992 204.248 92.4814 200.93 92.4814 196.783Z" fill="#262838"/>
<path d="M115.499 172.522C115.499 167.752 119.231 164.02 124 164.02C128.769 164.02 132.502 167.752 132.502 172.522C132.502 177.291 128.769 181.023 124 181.023C119.231 181.023 115.499 177.291 115.499 172.522Z" fill="#262838"/>
<path d="M138.515 148.261C138.515 142.87 142.87 138.515 148.261 138.515C153.652 138.515 158.007 142.87 158.007 148.261C158.007 153.652 153.652 158.007 148.261 158.007C142.87 158.007 138.515 153.652 138.515 148.261Z" fill="#262838"/>
<path d="M161.739 124C161.739 117.987 166.508 113.217 172.522 113.217C178.535 113.217 183.304 117.987 183.304 124C183.304 130.013 178.535 134.783 172.522 134.783C166.508 134.783 161.739 130.013 161.739 124Z" fill="#262838"/>
<path d="M184.756 99.7392C184.756 93.1037 190.147 87.7124 196.783 87.7124C203.418 87.7124 208.809 93.1037 208.809 99.7392C208.809 106.375 203.418 111.766 196.783 111.766C190.147 111.766 184.756 106.375 184.756 99.7392Z" fill="#262838"/>
<path d="M207.772 75.4781C207.772 68.2206 213.578 62.4146 220.836 62.4146C228.094 62.4146 233.9 68.2206 233.9 75.4781C233.9 82.7356 228.094 88.5416 220.836 88.5416C213.786 88.749 207.772 82.7356 207.772 75.4781Z" fill="#262838"/>
<path d="M92.4814 221.043C92.4814 216.896 95.7992 213.579 99.9463 213.579C104.093 213.579 107.411 216.896 107.411 221.043C107.411 225.191 104.093 228.508 99.9463 228.508C95.7992 228.508 92.4814 225.191 92.4814 221.043Z" fill="#262838"/>
<path d="M115.499 196.782C115.499 192.013 119.231 188.281 124 188.281C128.769 188.281 132.502 192.013 132.502 196.782C132.502 201.552 128.769 205.284 124 205.284C119.231 205.284 115.499 201.552 115.499 196.782Z" fill="#262838"/>
<path d="M138.515 172.522C138.515 167.13 142.87 162.776 148.261 162.776C153.652 162.776 158.007 167.13 158.007 172.522C158.007 177.913 153.652 182.268 148.261 182.268C142.87 182.268 138.515 177.913 138.515 172.522Z" fill="#262838"/>
<path d="M161.739 148.261C161.739 142.248 166.508 137.479 172.522 137.479C178.535 137.479 183.304 142.248 183.304 148.261C183.304 154.274 178.535 159.044 172.522 159.044C166.508 159.044 161.739 154.274 161.739 148.261Z" fill="#262838"/>
<path d="M184.756 124C184.756 117.364 190.147 111.973 196.783 111.973C203.418 111.973 208.809 117.364 208.809 124C208.809 130.635 203.418 136.027 196.783 136.027C190.147 136.027 184.756 130.635 184.756 124Z" fill="#262838"/>
<path d="M207.772 99.7393C207.772 92.4818 213.578 86.6758 220.836 86.6758C228.094 86.6758 233.9 92.4818 233.9 99.7393C233.9 106.997 228.094 112.803 220.836 112.803C213.786 113.01 207.772 106.997 207.772 99.7393Z" fill="#262838"/>
<path d="M115.499 221.044C115.499 216.274 119.231 212.542 124 212.542C128.769 212.542 132.502 216.274 132.502 221.044C132.502 225.813 128.769 229.545 124 229.545C119.231 229.545 115.499 225.813 115.499 221.044Z" fill="#262838"/>
<path d="M138.515 196.782C138.515 191.391 142.87 187.037 148.261 187.037C153.652 187.037 158.007 191.391 158.007 196.782C158.007 202.174 153.652 206.528 148.261 206.528C142.87 206.528 138.515 202.174 138.515 196.782Z" fill="#262838"/>
<path d="M161.739 172.522C161.739 166.508 166.508 161.739 172.522 161.739C178.535 161.739 183.304 166.508 183.304 172.522C183.304 178.535 178.535 183.304 172.522 183.304C166.508 183.304 161.739 178.535 161.739 172.522Z" fill="#262838"/>
<path d="M184.756 148.261C184.756 141.625 190.147 136.234 196.783 136.234C203.418 136.234 208.809 141.625 208.809 148.261C208.809 154.896 203.418 160.287 196.783 160.287C190.147 160.287 184.756 154.896 184.756 148.261Z" fill="#262838"/>
<path d="M207.772 124C207.772 116.743 213.578 110.937 220.836 110.937C228.094 110.937 233.9 116.743 233.9 124C233.9 131.258 228.094 137.064 220.836 137.064C213.786 137.271 207.772 131.258 207.772 124Z" fill="#262838"/>
<path d="M138.515 221.044C138.515 215.652 142.87 211.298 148.261 211.298C153.652 211.298 158.007 215.652 158.007 221.044C158.007 226.435 153.652 230.789 148.261 230.789C142.87 230.789 138.515 226.435 138.515 221.044Z" fill="#262838"/>
<path d="M161.739 196.783C161.739 190.769 166.508 186 172.522 186C178.535 186 183.304 190.769 183.304 196.783C183.304 202.796 178.535 207.565 172.522 207.565C166.508 207.565 161.739 202.796 161.739 196.783Z" fill="#262838"/>
<path d="M184.756 172.522C184.756 165.886 190.147 160.495 196.783 160.495C203.418 160.495 208.809 165.886 208.809 172.522C208.809 179.157 203.418 184.549 196.783 184.549C190.147 184.549 184.756 179.157 184.756 172.522Z" fill="#262838"/>
<path d="M207.772 148.261C207.772 141.003 213.578 135.197 220.836 135.197C228.094 135.197 233.9 141.003 233.9 148.261C233.9 155.518 228.094 161.324 220.836 161.324C213.786 161.324 207.772 155.518 207.772 148.261Z" fill="#262838"/>
<path d="M161.739 221.043C161.739 215.03 166.508 210.261 172.522 210.261C178.535 210.261 183.304 215.03 183.304 221.043C183.304 227.057 178.535 231.826 172.522 231.826C166.508 231.826 161.739 227.057 161.739 221.043Z" fill="#262838"/>
<path d="M184.756 196.783C184.756 190.147 190.147 184.756 196.783 184.756C203.418 184.756 208.809 190.147 208.809 196.783C208.809 203.418 203.418 208.809 196.783 208.809C190.147 208.809 184.756 203.418 184.756 196.783Z" fill="#262838"/>
<path d="M207.772 172.522C207.772 165.264 213.578 159.458 220.836 159.458C228.094 159.458 233.9 165.264 233.9 172.522C233.9 179.779 228.094 185.585 220.836 185.585C213.786 185.585 207.772 179.779 207.772 172.522Z" fill="#262838"/>
<path d="M184.756 221.043C184.756 214.408 190.147 209.017 196.783 209.017C203.418 209.017 208.809 214.408 208.809 221.043C208.809 227.679 203.418 233.07 196.783 233.07C190.147 233.07 184.756 227.679 184.756 221.043Z" fill="#262838"/>
<path d="M207.772 196.783C207.772 189.525 213.578 183.719 220.836 183.719C228.094 183.719 233.9 189.525 233.9 196.783C233.9 204.04 228.094 209.846 220.836 209.846C213.786 209.846 207.772 204.04 207.772 196.783Z" fill="#262838"/>
<path d="M207.772 221.044C207.772 213.786 213.578 207.98 220.836 207.98C228.094 207.98 233.9 213.786 233.9 221.044C233.9 228.301 228.094 234.107 220.836 234.107C213.786 234.107 207.772 228.301 207.772 221.044Z" fill="#262838"/>
</g>
<defs>
<clipPath id="clip0_5_1371">
<rect width="248" height="248" fill="white"/>
</clipPath>
</defs>
</svg>
