<svg width="248" height="248" viewBox="0 0 248 248" fill="none" xmlns="http://www.w3.org/2000/svg">
<g clip-path="url(#clip0_5_1001)">
<path d="M5.80602 27.1638C5.80602 28.8226 4.56187 30.0668 2.90301 30.0668C1.24415 30.0668 0 28.8226 0 27.1638C0 25.5049 1.24415 24.2607 2.90301 24.2607C4.35452 24.2607 5.80602 25.5049 5.80602 27.1638Z" fill="#262838"/>
<path d="M29.8597 27.1638C29.8597 28.8226 28.6156 30.0668 26.9567 30.0668C25.2979 30.0668 24.0537 28.8226 24.0537 27.1638C24.0537 25.5049 25.2979 24.2607 26.9567 24.2607C28.6156 24.2607 29.8597 25.5049 29.8597 27.1638Z" fill="#262838"/>
<path d="M54.1205 27.1638C54.1205 28.8226 52.8763 30.0668 51.2175 30.0668C49.5586 30.0668 48.3145 28.8226 48.3145 27.1638C48.3145 25.5049 49.5586 24.2607 51.2175 24.2607C52.8763 24.2607 54.1205 25.5049 54.1205 27.1638Z" fill="#262838"/>
<path d="M78.3812 27.1638C78.3812 28.8226 77.1371 30.0668 75.4782 30.0668C73.8193 30.0668 72.5752 28.8226 72.5752 27.1638C72.5752 25.5049 73.8193 24.2607 75.4782 24.2607C77.1371 24.2607 78.3812 25.5049 78.3812 27.1638Z" fill="#262838"/>
<path d="M102.642 27.1638C102.642 28.8226 101.398 30.0668 99.7389 30.0668C98.0801 30.0668 96.8359 28.8226 96.8359 27.1638C96.8359 25.5049 98.0801 24.2607 99.7389 24.2607C101.398 24.2607 102.642 25.5049 102.642 27.1638Z" fill="#262838"/>
<path d="M132.502 27.1638C132.502 31.933 128.769 35.6655 124 35.6655C119.231 35.6655 115.499 31.933 115.499 27.1638C115.499 22.3946 119.231 18.6621 124 18.6621C128.769 18.4548 132.502 22.3946 132.502 27.1638Z" fill="#262838"/>
<path d="M151.164 27.1638C151.164 28.8226 149.92 30.0668 148.261 30.0668C146.602 30.0668 145.358 28.8226 145.358 27.1638C145.358 25.5049 146.602 24.2607 148.261 24.2607C149.92 24.2607 151.164 25.5049 151.164 27.1638Z" fill="#262838"/>
<path d="M175.425 27.1638C175.425 28.8226 174.181 30.0668 172.522 30.0668C170.863 30.0668 169.619 28.8226 169.619 27.1638C169.619 25.5049 170.863 24.2607 172.522 24.2607C174.181 24.2607 175.425 25.5049 175.425 27.1638Z" fill="#262838"/>
<path d="M199.685 27.1638C199.685 28.8226 198.441 30.0668 196.782 30.0668C195.124 30.0668 193.879 28.8226 193.879 27.1638C193.879 25.5049 195.124 24.2607 196.782 24.2607C198.234 24.2607 199.685 25.5049 199.685 27.1638Z" fill="#262838"/>
<path d="M223.947 27.1638C223.947 28.8226 222.703 30.0668 221.044 30.0668C219.385 30.0668 218.141 28.8226 218.141 27.1638C218.141 25.5049 219.385 24.2607 221.044 24.2607C222.495 24.2607 223.947 25.5049 223.947 27.1638Z" fill="#262838"/>
<path d="M248 27.1638C248 28.8226 246.756 30.0668 245.097 30.0668C243.438 30.0668 242.194 28.8226 242.194 27.1638C242.194 25.5049 243.438 24.2607 245.097 24.2607C246.756 24.2607 248 25.5049 248 27.1638Z" fill="#262838"/>
<path d="M5.80602 51.425C5.80602 53.0838 4.56187 54.328 2.90301 54.328C1.24415 54.328 0 53.0838 0 51.425C0 49.7661 1.24415 48.522 2.90301 48.522C4.35452 48.522 5.80602 49.7661 5.80602 51.425Z" fill="#262838"/>
<path d="M29.8597 51.425C29.8597 53.0838 28.6156 54.328 26.9567 54.328C25.2979 54.328 24.0537 53.0838 24.0537 51.425C24.0537 49.7661 25.2979 48.522 26.9567 48.522C28.6156 48.522 29.8597 49.7661 29.8597 51.425Z" fill="#262838"/>
<path d="M54.1205 51.425C54.1205 53.0838 52.8763 54.328 51.2175 54.328C49.5586 54.328 48.3145 53.0838 48.3145 51.425C48.3145 49.7661 49.5586 48.522 51.2175 48.522C52.8763 48.522 54.1205 49.7661 54.1205 51.425Z" fill="#262838"/>
<path d="M78.3812 51.425C78.3812 53.0838 77.1371 54.328 75.4782 54.328C73.8193 54.328 72.5752 53.0838 72.5752 51.425C72.5752 49.7661 73.8193 48.522 75.4782 48.522C77.1371 48.522 78.3812 49.7661 78.3812 51.425Z" fill="#262838"/>
<path d="M108.448 51.4245C108.448 56.1938 104.716 59.9262 99.9465 59.9262C95.1773 59.9262 91.4448 56.1938 91.4448 51.4245C91.4448 46.6553 95.1773 42.9229 99.9465 42.9229C104.508 42.7155 108.448 46.6553 108.448 51.4245Z" fill="#262838"/>
<path d="M138.308 51.4249C138.308 59.3045 131.88 65.7326 124 65.7326C116.12 65.7326 109.692 59.3045 109.692 51.4249C109.692 43.5453 116.12 37.1172 124 37.1172C131.88 37.1172 138.308 43.5453 138.308 51.4249Z" fill="#262838"/>
<path d="M156.763 51.4245C156.763 56.1938 153.03 59.9262 148.261 59.9262C143.492 59.9262 139.759 56.1938 139.759 51.4245C139.759 46.6553 143.492 42.9229 148.261 42.9229C153.03 42.7155 156.763 46.6553 156.763 51.4245Z" fill="#262838"/>
<path d="M175.425 51.425C175.425 53.0838 174.181 54.328 172.522 54.328C170.863 54.328 169.619 53.0838 169.619 51.425C169.619 49.7661 170.863 48.522 172.522 48.522C174.181 48.522 175.425 49.7661 175.425 51.425Z" fill="#262838"/>
<path d="M199.685 51.425C199.685 53.0838 198.441 54.328 196.782 54.328C195.124 54.328 193.879 53.0838 193.879 51.425C193.879 49.7661 195.124 48.522 196.782 48.522C198.234 48.522 199.685 49.7661 199.685 51.425Z" fill="#262838"/>
<path d="M223.947 51.425C223.947 53.0838 222.703 54.328 221.044 54.328C219.385 54.328 218.141 53.0838 218.141 51.425C218.141 49.7661 219.385 48.522 221.044 48.522C222.495 48.522 223.947 49.7661 223.947 51.425Z" fill="#262838"/>
<path d="M248 51.425C248 53.0838 246.756 54.328 245.097 54.328C243.438 54.328 242.194 53.0838 242.194 51.425C242.194 49.7661 243.438 48.522 245.097 48.522C246.756 48.522 248 49.7661 248 51.425Z" fill="#262838"/>
<path d="M5.80602 75.4782C5.80602 77.1371 4.56187 78.3812 2.90301 78.3812C1.24415 78.3812 0 77.1371 0 75.4782C0 73.8193 1.24415 72.5752 2.90301 72.5752C4.35452 72.7826 5.80602 74.0267 5.80602 75.4782Z" fill="#262838"/>
<path d="M29.8597 75.4782C29.8597 77.1371 28.6156 78.3812 26.9567 78.3812C25.2979 78.3812 24.0537 77.1371 24.0537 75.4782C24.0537 73.8193 25.2979 72.5752 26.9567 72.5752C28.6156 72.7826 29.8597 74.0267 29.8597 75.4782Z" fill="#262838"/>
<path d="M54.1205 75.4782C54.1205 77.1371 52.8763 78.3812 51.2175 78.3812C49.5586 78.3812 48.3145 77.1371 48.3145 75.4782C48.3145 73.8193 49.5586 72.5752 51.2175 72.5752C52.8763 72.7826 54.1205 74.0267 54.1205 75.4782Z" fill="#262838"/>
<path d="M84.1874 75.4782C84.1874 80.2475 80.455 83.9799 75.6858 83.9799C70.9165 83.9799 67.1841 80.2475 67.1841 75.4782C67.1841 70.709 70.9165 66.9766 75.6858 66.9766C80.2476 66.9766 84.1874 70.9164 84.1874 75.4782Z" fill="#262838"/>
<path d="M114.047 75.4781C114.047 83.3577 107.619 89.7858 99.7393 89.7858C91.8597 89.7858 85.4316 83.3577 85.4316 75.4781C85.4316 67.5985 91.8597 61.1704 99.7393 61.1704C107.619 61.1704 114.047 67.5985 114.047 75.4781Z" fill="#262838"/>
<path d="M135.405 75.4784C135.405 81.6992 130.221 86.8831 124 86.8831C117.779 86.8831 112.595 81.6992 112.595 75.4784C112.595 69.2577 117.779 64.0737 124 64.0737C130.428 64.0737 135.405 69.2577 135.405 75.4784Z" fill="#262838"/>
<path d="M162.569 75.4781C162.569 83.3577 156.14 89.7858 148.261 89.7858C140.381 89.7858 133.953 83.3577 133.953 75.4781C133.953 67.5985 140.381 61.1704 148.261 61.1704C156.14 61.1704 162.569 67.5985 162.569 75.4781Z" fill="#262838"/>
<path d="M181.023 75.4782C181.023 80.2475 177.291 83.9799 172.522 83.9799C167.752 83.9799 164.02 80.2475 164.02 75.4782C164.02 70.709 167.752 66.9766 172.522 66.9766C177.291 66.9766 181.023 70.9164 181.023 75.4782Z" fill="#262838"/>
<path d="M199.685 75.4782C199.685 77.1371 198.441 78.3812 196.782 78.3812C195.124 78.3812 193.879 77.1371 193.879 75.4782C193.879 73.8193 195.124 72.5752 196.782 72.5752C198.234 72.7826 199.685 74.0267 199.685 75.4782Z" fill="#262838"/>
<path d="M223.947 75.4782C223.947 77.1371 222.703 78.3812 221.044 78.3812C219.385 78.3812 218.141 77.1371 218.141 75.4782C218.141 73.8193 219.385 72.5752 221.044 72.5752C222.495 72.7826 223.947 74.0267 223.947 75.4782Z" fill="#262838"/>
<path d="M248 75.4782C248 77.1371 246.756 78.3812 245.097 78.3812C243.438 78.3812 242.194 77.1371 242.194 75.4782C242.194 73.8193 243.438 72.5752 245.097 72.5752C246.756 72.7826 248 74.0267 248 75.4782Z" fill="#262838"/>
<path d="M5.80602 99.7389C5.80602 101.398 4.56187 102.642 2.90301 102.642C1.24415 102.642 0 101.398 0 99.7389C0 98.0801 1.24415 96.8359 2.90301 96.8359C4.35452 97.0433 5.80602 98.2874 5.80602 99.7389Z" fill="#262838"/>
<path d="M29.8597 99.7389C29.8597 101.398 28.6156 102.642 26.9567 102.642C25.2979 102.642 24.0537 101.398 24.0537 99.7389C24.0537 98.0801 25.2979 96.8359 26.9567 96.8359C28.6156 97.0433 29.8597 98.2874 29.8597 99.7389Z" fill="#262838"/>
<path d="M59.9262 99.739C59.9262 104.508 56.1938 108.241 51.4245 108.241C46.6553 108.241 42.9229 104.508 42.9229 99.739C42.9229 94.9697 46.6553 91.2373 51.4245 91.2373C55.9864 91.2373 59.9262 95.1771 59.9262 99.739Z" fill="#262838"/>
<path d="M89.7858 99.7393C89.7858 107.619 83.3577 114.047 75.4781 114.047C67.5985 114.047 61.1704 107.619 61.1704 99.7393C61.1704 91.8597 67.5985 85.4316 75.4781 85.4316C83.3577 85.4316 89.7858 91.8597 89.7858 99.7393Z" fill="#262838"/>
<path d="M111.144 99.7392C111.144 105.96 105.96 111.144 99.7392 111.144C93.5184 111.144 88.3345 105.96 88.3345 99.7392C88.3345 93.5184 93.5184 88.3345 99.7392 88.3345C106.167 88.3345 111.144 93.5184 111.144 99.7392Z" fill="#262838"/>
<path d="M132.502 99.739C132.502 104.508 128.769 108.241 124 108.241C119.231 108.241 115.499 104.508 115.499 99.739C115.499 94.9697 119.231 91.2373 124 91.2373C128.769 91.2373 132.502 95.1771 132.502 99.739Z" fill="#262838"/>
<path d="M159.665 99.7392C159.665 105.96 154.481 111.144 148.261 111.144C142.04 111.144 136.856 105.96 136.856 99.7392C136.856 93.5184 142.04 88.3345 148.261 88.3345C154.689 88.3345 159.665 93.5184 159.665 99.7392Z" fill="#262838"/>
<path d="M186.829 99.7393C186.829 107.619 180.401 114.047 172.522 114.047C164.642 114.047 158.214 107.619 158.214 99.7393C158.214 91.8597 164.642 85.4316 172.522 85.4316C180.401 85.4316 186.829 91.8597 186.829 99.7393Z" fill="#262838"/>
<path d="M205.284 99.739C205.284 104.508 201.552 108.241 196.782 108.241C192.013 108.241 188.281 104.508 188.281 99.739C188.281 94.9697 192.013 91.2373 196.782 91.2373C201.552 91.2373 205.284 95.1771 205.284 99.739Z" fill="#262838"/>
<path d="M223.947 99.7389C223.947 101.398 222.703 102.642 221.044 102.642C219.385 102.642 218.141 101.398 218.141 99.7389C218.141 98.0801 219.385 96.8359 221.044 96.8359C222.495 97.0433 223.947 98.2874 223.947 99.7389Z" fill="#262838"/>
<path d="M248 99.7389C248 101.398 246.756 102.642 245.097 102.642C243.438 102.642 242.194 101.398 242.194 99.7389C242.194 98.0801 243.438 96.8359 245.097 96.8359C246.756 97.0433 248 98.2874 248 99.7389Z" fill="#262838"/>
<path d="M5.80602 124C5.80602 125.659 4.56187 126.903 2.90301 126.903C1.24415 126.903 0 125.659 0 124C0 122.341 1.24415 121.097 2.90301 121.097C4.35452 121.097 5.80602 122.549 5.80602 124Z" fill="#262838"/>
<path d="M35.6655 124C35.6655 128.769 31.933 132.502 27.1638 132.502C22.3946 132.502 18.6621 128.769 18.6621 124C18.6621 119.231 22.3946 115.499 27.1638 115.499C31.7257 115.499 35.6655 119.231 35.6655 124Z" fill="#262838"/>
<path d="M65.5251 124C65.5251 131.88 59.097 138.308 51.2174 138.308C43.3378 138.308 36.9097 131.88 36.9097 124C36.9097 116.12 43.3378 109.692 51.2174 109.692C59.3043 109.692 65.5251 116.12 65.5251 124Z" fill="#262838"/>
<path d="M86.8831 124C86.8831 130.221 81.6992 135.405 75.4784 135.405C69.2577 135.405 64.0737 130.221 64.0737 124C64.0737 117.779 69.2577 112.595 75.4784 112.595C81.9065 112.595 86.8831 117.779 86.8831 124Z" fill="#262838"/>
<path d="M108.448 124C108.448 128.769 104.716 132.502 99.9465 132.502C95.1773 132.502 91.4448 128.769 91.4448 124C91.4448 119.231 95.1773 115.499 99.9465 115.499C104.508 115.499 108.448 119.231 108.448 124Z" fill="#262838"/>
<path d="M129.806 124C129.806 127.11 127.318 129.806 124 129.806C120.889 129.806 118.194 127.318 118.194 124C118.194 120.682 120.682 118.194 124 118.194C127.11 118.401 129.806 120.889 129.806 124Z" fill="#262838"/>
<path d="M156.763 124C156.763 128.769 153.03 132.502 148.261 132.502C143.492 132.502 139.759 128.769 139.759 124C139.759 119.231 143.492 115.499 148.261 115.499C153.03 115.499 156.763 119.231 156.763 124Z" fill="#262838"/>
<path d="M183.927 124C183.927 130.221 178.743 135.405 172.522 135.405C166.301 135.405 161.117 130.221 161.117 124C161.117 117.779 166.301 112.595 172.522 112.595C178.743 112.595 183.927 117.779 183.927 124Z" fill="#262838"/>
<path d="M211.09 124C211.09 131.88 204.662 138.308 196.783 138.308C188.903 138.308 182.475 131.88 182.475 124C182.475 116.12 188.903 109.692 196.783 109.692C204.662 109.692 211.09 116.12 211.09 124Z" fill="#262838"/>
<path d="M229.545 124C229.545 128.769 225.813 132.502 221.044 132.502C216.274 132.502 212.542 128.769 212.542 124C212.542 119.231 216.274 115.499 221.044 115.499C225.813 115.499 229.545 119.231 229.545 124Z" fill="#262838"/>
<path d="M248 124C248 125.659 246.756 126.903 245.097 126.903C243.438 126.903 242.194 125.659 242.194 124C242.194 122.341 243.438 121.097 245.097 121.097C246.756 121.097 248 122.549 248 124Z" fill="#262838"/>
<path d="M5.80602 148.261C5.80602 149.92 4.56187 151.164 2.90301 151.164C1.24415 151.164 0 149.92 0 148.261C0 146.602 1.24415 145.358 2.90301 145.358C4.35452 145.358 5.80602 146.809 5.80602 148.261Z" fill="#262838"/>
<path d="M38.5686 148.261C38.5686 154.481 33.3847 159.665 27.164 159.665C20.9432 159.665 15.7593 154.481 15.7593 148.261C15.7593 142.04 20.7359 136.856 27.164 136.856C33.3847 136.856 38.5686 142.04 38.5686 148.261Z" fill="#262838"/>
<path d="M62.8294 148.261C62.8294 154.481 57.6454 159.665 51.4247 159.665C45.204 159.665 40.02 154.481 40.02 148.261C40.02 142.04 45.204 136.856 51.4247 136.856C57.6454 136.856 62.8294 142.04 62.8294 148.261Z" fill="#262838"/>
<path d="M84.1874 148.261C84.1874 153.03 80.455 156.763 75.6858 156.763C70.9165 156.763 67.1841 153.03 67.1841 148.261C67.1841 143.492 70.9165 139.759 75.6858 139.759C80.2476 139.759 84.1874 143.492 84.1874 148.261Z" fill="#262838"/>
<path d="M105.545 148.261C105.545 151.371 103.057 154.067 99.7391 154.067C96.6288 154.067 93.9331 151.579 93.9331 148.261C93.9331 144.943 96.4214 142.455 99.7391 142.455C103.057 142.662 105.545 145.151 105.545 148.261Z" fill="#262838"/>
<path d="M126.903 148.261C126.903 149.92 125.659 151.164 124 151.164C122.341 151.164 121.097 149.92 121.097 148.261C121.097 146.602 122.341 145.358 124 145.358C125.659 145.358 126.903 146.809 126.903 148.261Z" fill="#262838"/>
<path d="M154.067 148.261C154.067 151.371 151.579 154.067 148.261 154.067C145.151 154.067 142.455 151.579 142.455 148.261C142.455 144.943 144.943 142.455 148.261 142.455C151.371 142.662 154.067 145.151 154.067 148.261Z" fill="#262838"/>
<path d="M181.023 148.261C181.023 153.03 177.291 156.763 172.522 156.763C167.752 156.763 164.02 153.03 164.02 148.261C164.02 143.492 167.752 139.759 172.522 139.759C177.291 139.759 181.023 143.492 181.023 148.261Z" fill="#262838"/>
<path d="M208.187 148.261C208.187 154.481 203.003 159.665 196.783 159.665C190.562 159.665 185.378 154.481 185.378 148.261C185.378 142.04 190.562 136.856 196.783 136.856C203.003 136.856 208.187 142.04 208.187 148.261Z" fill="#262838"/>
<path d="M232.448 148.261C232.448 154.481 227.264 159.665 221.043 159.665C214.823 159.665 209.639 154.481 209.639 148.261C209.639 142.04 214.823 136.856 221.043 136.856C227.264 136.856 232.448 142.04 232.448 148.261Z" fill="#262838"/>
<path d="M248 148.261C248 149.92 246.756 151.164 245.097 151.164C243.438 151.164 242.194 149.92 242.194 148.261C242.194 146.602 243.438 145.358 245.097 145.358C246.756 145.358 248 146.809 248 148.261Z" fill="#262838"/>
<path d="M5.80602 172.522C5.80602 174.181 4.56187 175.425 2.90301 175.425C1.24415 175.425 0 174.181 0 172.522C0 170.863 1.24415 169.619 2.90301 169.619C4.35452 169.619 5.80602 170.863 5.80602 172.522Z" fill="#262838"/>
<path d="M38.5686 172.522C38.5686 178.743 33.3847 183.927 27.164 183.927C20.9432 183.927 15.7593 178.743 15.7593 172.522C15.7593 166.301 20.9432 161.117 27.164 161.117C33.3847 161.117 38.5686 166.301 38.5686 172.522Z" fill="#262838"/>
<path d="M59.9262 172.522C59.9262 177.291 56.1938 181.023 51.4245 181.023C46.6553 181.023 42.9229 177.291 42.9229 172.522C42.9229 167.752 46.6553 164.02 51.4245 164.02C55.9864 164.02 59.9262 167.752 59.9262 172.522Z" fill="#262838"/>
<path d="M81.2844 172.522C81.2844 175.632 78.7961 178.328 75.4784 178.328C72.368 178.328 69.6724 175.84 69.6724 172.522C69.6724 169.204 72.1607 166.716 75.4784 166.716C78.7961 166.716 81.2844 169.411 81.2844 172.522Z" fill="#262838"/>
<path d="M102.642 172.522C102.642 174.181 101.398 175.425 99.7389 175.425C98.0801 175.425 96.8359 174.181 96.8359 172.522C96.8359 170.863 98.0801 169.619 99.7389 169.619C101.398 169.619 102.642 170.863 102.642 172.522Z" fill="#262838"/>
<path d="M126.903 172.522C126.903 174.181 125.659 175.425 124 175.425C122.341 175.425 121.097 174.181 121.097 172.522C121.097 170.863 122.341 169.619 124 169.619C125.659 169.619 126.903 170.863 126.903 172.522Z" fill="#262838"/>
<path d="M151.164 172.522C151.164 174.181 149.92 175.425 148.261 175.425C146.602 175.425 145.358 174.181 145.358 172.522C145.358 170.863 146.602 169.619 148.261 169.619C149.92 169.619 151.164 170.863 151.164 172.522Z" fill="#262838"/>
<path d="M178.328 172.522C178.328 175.632 175.84 178.328 172.522 178.328C169.411 178.328 166.716 175.84 166.716 172.522C166.716 169.204 169.204 166.716 172.522 166.716C175.632 166.716 178.328 169.411 178.328 172.522Z" fill="#262838"/>
<path d="M205.284 172.522C205.284 177.291 201.552 181.023 196.782 181.023C192.013 181.023 188.281 177.291 188.281 172.522C188.281 167.752 192.013 164.02 196.782 164.02C201.552 164.02 205.284 167.752 205.284 172.522Z" fill="#262838"/>
<path d="M232.448 172.522C232.448 178.743 227.264 183.927 221.043 183.927C214.823 183.927 209.639 178.743 209.639 172.522C209.639 166.301 214.823 161.117 221.043 161.117C227.264 161.117 232.448 166.301 232.448 172.522Z" fill="#262838"/>
<path d="M248 172.522C248 174.181 246.756 175.425 245.097 175.425C243.438 175.425 242.194 174.181 242.194 172.522C242.194 170.863 243.438 169.619 245.097 169.619C246.756 169.619 248 170.863 248 172.522Z" fill="#262838"/>
<path d="M5.80602 196.782C5.80602 198.441 4.56187 199.685 2.90301 199.685C1.24415 199.685 0 198.441 0 196.782C0 195.124 1.24415 193.879 2.90301 193.879C4.35452 193.879 5.80602 195.124 5.80602 196.782Z" fill="#262838"/>
<path d="M35.6655 196.782C35.6655 201.552 31.933 205.284 27.1638 205.284C22.3946 205.284 18.6621 201.552 18.6621 196.782C18.6621 192.013 22.3946 188.281 27.1638 188.281C31.7257 188.281 35.6655 192.013 35.6655 196.782Z" fill="#262838"/>
<path d="M57.0232 196.783C57.0232 199.893 54.5349 202.589 51.2172 202.589C48.1068 202.589 45.4111 200.1 45.4111 196.783C45.4111 193.465 47.8994 190.977 51.2172 190.977C54.5349 190.977 57.0232 193.672 57.0232 196.783Z" fill="#262838"/>
<path d="M78.3812 196.782C78.3812 198.441 77.1371 199.685 75.4782 199.685C73.8193 199.685 72.5752 198.441 72.5752 196.782C72.5752 195.124 73.8193 193.879 75.4782 193.879C77.1371 193.879 78.3812 195.124 78.3812 196.782Z" fill="#262838"/>
<path d="M102.642 196.782C102.642 198.441 101.398 199.685 99.7389 199.685C98.0801 199.685 96.8359 198.441 96.8359 196.782C96.8359 195.124 98.0801 193.879 99.7389 193.879C101.398 193.879 102.642 195.124 102.642 196.782Z" fill="#262838"/>
<path d="M126.903 196.782C126.903 198.441 125.659 199.685 124 199.685C122.341 199.685 121.097 198.441 121.097 196.782C121.097 195.124 122.341 193.879 124 193.879C125.659 193.879 126.903 195.124 126.903 196.782Z" fill="#262838"/>
<path d="M151.164 196.782C151.164 198.441 149.92 199.685 148.261 199.685C146.602 199.685 145.358 198.441 145.358 196.782C145.358 195.124 146.602 193.879 148.261 193.879C149.92 193.879 151.164 195.124 151.164 196.782Z" fill="#262838"/>
<path d="M175.425 196.782C175.425 198.441 174.181 199.685 172.522 199.685C170.863 199.685 169.619 198.441 169.619 196.782C169.619 195.124 170.863 193.879 172.522 193.879C174.181 193.879 175.425 195.124 175.425 196.782Z" fill="#262838"/>
<path d="M202.381 196.783C202.381 199.893 199.893 202.589 196.575 202.589C193.465 202.589 190.769 200.1 190.769 196.783C190.769 193.465 193.257 190.977 196.575 190.977C199.893 190.977 202.381 193.672 202.381 196.783Z" fill="#262838"/>
<path d="M229.545 196.782C229.545 201.552 225.813 205.284 221.044 205.284C216.274 205.284 212.542 201.552 212.542 196.782C212.542 192.013 216.274 188.281 221.044 188.281C225.813 188.281 229.545 192.013 229.545 196.782Z" fill="#262838"/>
<path d="M248 196.782C248 198.441 246.756 199.685 245.097 199.685C243.438 199.685 242.194 198.441 242.194 196.782C242.194 195.124 243.438 193.879 245.097 193.879C246.756 193.879 248 195.124 248 196.782Z" fill="#262838"/>
<path d="M5.80602 221.044C5.80602 222.703 4.56187 223.947 2.90301 223.947C1.24415 223.947 0 222.703 0 221.044C0 219.385 1.24415 218.141 2.90301 218.141C4.35452 218.141 5.80602 219.385 5.80602 221.044Z" fill="#262838"/>
<path d="M32.7624 221.043C32.7624 224.154 30.2741 226.849 26.9564 226.849C23.846 226.849 21.1504 224.361 21.1504 221.043C21.1504 217.726 23.6387 215.237 26.9564 215.237C30.2741 215.237 32.7624 217.933 32.7624 221.043Z" fill="#262838"/>
<path d="M54.1205 221.044C54.1205 222.703 52.8763 223.947 51.2175 223.947C49.5586 223.947 48.3145 222.703 48.3145 221.044C48.3145 219.385 49.5586 218.141 51.2175 218.141C52.8763 218.141 54.1205 219.385 54.1205 221.044Z" fill="#262838"/>
<path d="M78.3812 221.044C78.3812 222.703 77.1371 223.947 75.4782 223.947C73.8193 223.947 72.5752 222.703 72.5752 221.044C72.5752 219.385 73.8193 218.141 75.4782 218.141C77.1371 218.141 78.3812 219.385 78.3812 221.044Z" fill="#262838"/>
<path d="M102.642 221.044C102.642 222.703 101.398 223.947 99.7389 223.947C98.0801 223.947 96.8359 222.703 96.8359 221.044C96.8359 219.385 98.0801 218.141 99.7389 218.141C101.398 218.141 102.642 219.385 102.642 221.044Z" fill="#262838"/>
<path d="M126.903 221.044C126.903 222.703 125.659 223.947 124 223.947C122.341 223.947 121.097 222.703 121.097 221.044C121.097 219.385 122.341 218.141 124 218.141C125.659 218.141 126.903 219.385 126.903 221.044Z" fill="#262838"/>
<path d="M151.164 221.044C151.164 222.703 149.92 223.947 148.261 223.947C146.602 223.947 145.358 222.703 145.358 221.044C145.358 219.385 146.602 218.141 148.261 218.141C149.92 218.141 151.164 219.385 151.164 221.044Z" fill="#262838"/>
<path d="M175.425 221.044C175.425 222.703 174.181 223.947 172.522 223.947C170.863 223.947 169.619 222.703 169.619 221.044C169.619 219.385 170.863 218.141 172.522 218.141C174.181 218.141 175.425 219.385 175.425 221.044Z" fill="#262838"/>
<path d="M199.685 221.044C199.685 222.703 198.441 223.947 196.782 223.947C195.124 223.947 193.879 222.703 193.879 221.044C193.879 219.385 195.124 218.141 196.782 218.141C198.234 218.141 199.685 219.385 199.685 221.044Z" fill="#262838"/>
<path d="M226.642 221.043C226.642 224.154 224.154 226.849 220.836 226.849C217.726 226.849 215.03 224.361 215.03 221.043C215.03 217.726 217.519 215.237 220.836 215.237C224.154 215.237 226.642 217.933 226.642 221.043Z" fill="#262838"/>
<path d="M248 221.044C248 222.703 246.756 223.947 245.097 223.947C243.438 223.947 242.194 222.703 242.194 221.044C242.194 219.385 243.438 218.141 245.097 218.141C246.756 218.141 248 219.385 248 221.044Z" fill="#262838"/>
<path d="M5.80602 2.90301C5.80602 4.56187 4.56187 5.80602 2.90301 5.80602C1.24415 5.80602 0 4.35452 0 2.90301C0 1.4515 1.24415 0 2.90301 0C4.35452 0 5.80602 1.24415 5.80602 2.90301Z" fill="#262838"/>
<path d="M29.8597 2.90301C29.8597 4.56187 28.6156 5.80602 26.9567 5.80602C25.2979 5.80602 24.0537 4.56187 24.0537 2.90301C24.0537 1.24415 25.5052 0 27.1641 0C28.6156 0 29.8597 1.24415 29.8597 2.90301Z" fill="#262838"/>
<path d="M54.1205 2.90301C54.1205 4.56187 52.8763 5.80602 51.2175 5.80602C49.5586 5.80602 48.3145 4.56187 48.3145 2.90301C48.3145 1.24415 49.766 0 51.4248 0C52.8763 0 54.1205 1.24415 54.1205 2.90301Z" fill="#262838"/>
<path d="M78.3812 2.90301C78.3812 4.56187 77.1371 5.80602 75.4782 5.80602C73.8193 5.80602 72.5752 4.56187 72.5752 2.90301C72.5752 1.24415 74.0267 0 75.4782 0C77.1371 0 78.3812 1.24415 78.3812 2.90301Z" fill="#262838"/>
<path d="M102.642 2.90301C102.642 4.56187 101.398 5.80602 99.7389 5.80602C98.0801 5.80602 96.8359 4.56187 96.8359 2.90301C96.8359 1.24415 98.2874 0 99.7389 0C101.398 0 102.642 1.24415 102.642 2.90301Z" fill="#262838"/>
<path d="M126.903 2.90301C126.903 4.56187 125.659 5.80602 124 5.80602C122.341 5.80602 121.097 4.56187 121.097 2.90301C121.097 1.24415 122.549 0 124 0C125.659 0 126.903 1.24415 126.903 2.90301Z" fill="#262838"/>
<path d="M151.164 2.90301C151.164 4.56187 149.92 5.80602 148.261 5.80602C146.602 5.80602 145.358 4.56187 145.358 2.90301C145.358 1.24415 146.809 0 148.261 0C149.92 0 151.164 1.24415 151.164 2.90301Z" fill="#262838"/>
<path d="M175.425 2.90301C175.425 4.56187 174.181 5.80602 172.522 5.80602C170.863 5.80602 169.619 4.56187 169.619 2.90301C169.619 1.24415 170.863 0 172.522 0C174.181 0 175.425 1.24415 175.425 2.90301Z" fill="#262838"/>
<path d="M199.685 2.90301C199.685 4.56187 198.441 5.80602 196.782 5.80602C195.124 5.80602 193.879 4.56187 193.879 2.90301C193.879 1.24415 195.124 0 196.782 0C198.234 0 199.685 1.24415 199.685 2.90301Z" fill="#262838"/>
<path d="M223.947 2.90301C223.947 4.56187 222.703 5.80602 221.044 5.80602C219.385 5.80602 218.141 4.56187 218.141 2.90301C218.141 1.24415 219.385 0 221.044 0C222.495 0 223.947 1.24415 223.947 2.90301Z" fill="#262838"/>
<path d="M248 2.90301C248 4.56187 246.756 5.80602 245.097 5.80602C243.438 5.80602 242.194 4.56187 242.194 2.90301C242.194 1.24415 243.438 0 245.097 0C246.756 0 248 1.24415 248 2.90301Z" fill="#262838"/>
<path d="M54.1205 245.304C54.1205 246.963 52.8763 248.207 51.2175 248.207C49.5586 248.207 48.3145 246.963 48.3145 245.304C48.3145 243.646 49.5586 242.401 51.2175 242.401C52.8763 242.401 54.1205 243.646 54.1205 245.304Z" fill="#262838"/>
<path d="M78.3812 245.304C78.3812 246.963 77.1371 248.207 75.4782 248.207C73.8193 248.207 72.5752 246.963 72.5752 245.304C72.5752 243.646 73.8193 242.401 75.4782 242.401C77.1371 242.401 78.3812 243.646 78.3812 245.304Z" fill="#262838"/>
<path d="M102.642 245.304C102.642 246.963 101.398 248.207 99.7389 248.207C98.0801 248.207 96.8359 246.963 96.8359 245.304C96.8359 243.646 98.0801 242.401 99.7389 242.401C101.398 242.401 102.642 243.646 102.642 245.304Z" fill="#262838"/>
<path d="M126.903 245.304C126.903 246.963 125.659 248.207 124 248.207C122.341 248.207 121.097 246.963 121.097 245.304C121.097 243.646 122.341 242.401 124 242.401C125.659 242.401 126.903 243.646 126.903 245.304Z" fill="#262838"/>
<path d="M151.164 245.304C151.164 246.963 149.92 248.207 148.261 248.207C146.602 248.207 145.358 246.963 145.358 245.304C145.358 243.646 146.602 242.401 148.261 242.401C149.92 242.401 151.164 243.646 151.164 245.304Z" fill="#262838"/>
<path d="M175.425 245.304C175.425 246.963 174.181 248.207 172.522 248.207C170.863 248.207 169.619 246.963 169.619 245.304C169.619 243.646 170.863 242.401 172.522 242.401C174.181 242.401 175.425 243.646 175.425 245.304Z" fill="#262838"/>
<path d="M199.685 245.304C199.685 246.963 198.441 248.207 196.782 248.207C195.124 248.207 193.879 246.963 193.879 245.304C193.879 243.646 195.124 242.401 196.782 242.401C198.234 242.401 199.685 243.646 199.685 245.304Z" fill="#262838"/>
<path d="M223.947 245.304C223.947 246.963 222.703 248.207 221.044 248.207C219.385 248.207 218.141 246.963 218.141 245.304C218.141 243.646 219.385 242.401 221.044 242.401C222.495 242.401 223.947 243.646 223.947 245.304Z" fill="#262838"/>
<path d="M5.80602 245.304C5.80602 246.963 4.56187 248.207 2.90301 248.207C1.24415 248.207 0 246.963 0 245.304C0 243.646 1.24415 242.401 2.90301 242.401C4.35452 242.401 5.80602 243.646 5.80602 245.304Z" fill="#262838"/>
<path d="M29.8597 245.304C29.8597 246.963 28.6156 248.207 26.9567 248.207C25.2979 248.207 24.0537 246.963 24.0537 245.304C24.0537 243.646 25.2979 242.401 26.9567 242.401C28.6156 242.401 29.8597 243.646 29.8597 245.304Z" fill="#262838"/>
<path d="M248 245.304C248 246.963 246.756 248.207 245.097 248.207C243.438 248.207 242.194 246.963 242.194 245.304C242.194 243.646 243.438 242.401 245.097 242.401C246.756 242.401 248 243.646 248 245.304Z" fill="#262838"/>
</g>
<defs>
<clipPath id="clip0_5_1001">
<rect width="248" height="248" fill="white"/>
</clipPath>
</defs>
</svg>
